<svg xmlns="http://www.w3.org/2000/svg" width="190" height="29.619"><path d="M120.205 29.619V.014h-7.168v20.043L98.001.001h-8.237l.011.014h-.011v29.6h7.168V9.562l15.035 20.057h8.237Zm40.21-.006H190v-6.617h-22.444l.012-5.173h18.493l-4.663-6.224h-13.842V6.625H190V.006h-29.585Zm-19.085-6.598h-9.762V6.656h9.762c5.064 0 8.427 2.843 8.427 8.17 0 4.978-3.449 8.191-8.427 8.191m0-23-16.891.044v29.541h16.891c9.258 0 15.677-6.128 15.677-14.777 0-8.56-5.9-14.849-15.677-14.807" style="fill:#003087;fill-rule:evenodd"/><path d="M-60.351-8.741c-4.978 0-8.428-3.212-8.428-8.191 0-5.327 3.363-8.17 8.428-8.17s8.427 2.843 8.427 8.17c0 4.978-3.449 8.191-8.427 8.191m0-23c-9.782-.042-15.677 6.247-15.677 14.807 0 8.649 6.419 14.777 15.677 14.777s15.677-6.128 15.677-14.777c0-8.56-5.9-14.849-15.677-14.807" transform="translate(131.031 31.756)" style="fill:#003087"/><path d="M22.161.006h22.18v29.607Zm0 0H0v29.607Z" style="fill:#009cde;fill-rule:evenodd"/></svg>