<?xml version="1.0" encoding="UTF-8"?>
<!-- Generator: visioncortex VTracer 0.6.3 -->
<svg version="1.1" xmlns="http://www.w3.org/2000/svg" width="905" height="1280">
<path d="M0 0 C12.27 0.23 24.68 4.36 34.13 12.39 C34.46 13.38 34.79 14.37 35.13 15.39 C36.12 15.72 37.11 16.05 38.13 16.39 C40.69 23.24 39.83 28.11 38.14 35.1 C35.06 47.81 32.12 61.26 33.13 74.39 C32.47 74.39 31.81 74.39 31.13 74.39 C31.46 76.04 31.79 77.69 32.13 79.39 C32.33 78.81 32.53 78.24 32.73 77.64 C33.63 75.01 34.54 72.39 35.44 69.76 C35.75 68.86 36.06 67.95 36.38 67.02 C38.02 62.28 39.84 57.86 42.13 53.39 C42.7 51.73 43.22 50.07 43.69 48.39 C44.76 44.69 45.89 41.03 47.13 37.39 C46.47 36.73 45.81 36.07 45.13 35.39 C45.79 35.39 46.45 35.39 47.13 35.39 C47.46 34.73 47.79 34.07 48.13 33.39 C50.13 31.39 50.13 31.39 53.01 31.14 C56.09 31.38 57.51 31.86 60.13 33.39 C60.94 33.69 61.74 34 62.57 34.32 C65.32 35.46 67.62 36.79 70.13 38.39 C70.9 38.87 71.66 39.35 72.45 39.84 C73.27 40.37 74.1 40.9 74.94 41.45 C76.13 42.21 76.13 42.21 77.34 42.98 C77.93 43.45 78.52 43.91 79.13 44.39 C79.13 45.05 79.13 45.71 79.13 46.39 C79.83 46.57 80.53 46.76 81.26 46.95 C85.2 48.92 87.61 51.81 90.13 55.39 C90.46 56.38 90.79 57.37 91.13 58.39 C92.79 59.4 94.46 60.4 96.13 61.39 C96.13 62.05 96.13 62.71 96.13 63.39 C96.79 63.39 97.45 63.39 98.13 63.39 C102.13 68.68 102.13 68.68 102.13 72.39 C102.79 72.39 103.45 72.39 104.13 72.39 C104.21 72.96 104.3 73.54 104.38 74.14 C105.34 77 106.98 78.3 109.13 80.39 C110.13 83.39 110.13 83.39 110.57 85.95 C110.94 88.55 110.94 88.55 113.13 90.39 C113.69 92.19 113.69 92.19 114.13 94.26 C114.61 96.5 115.08 98.29 116.16 100.32 C117.67 103.52 117.58 106.75 117.79 110.24 C117.9 110.95 118.02 111.66 118.13 112.39 C118.79 112.72 119.45 113.05 120.13 113.39 C119.47 113.39 118.81 113.39 118.13 113.39 C117.8 114.71 117.47 116.03 117.13 117.39 C112.18 117.88 112.18 117.88 107.13 118.39 C107.13 119.71 107.13 121.03 107.13 122.39 C109.39 124.32 109.39 124.32 112.32 125.95 C113.28 126.53 114.25 127.11 115.24 127.7 C116.67 128.53 116.67 128.53 118.13 129.39 C119.8 130.38 121.47 131.38 123.13 132.39 C123.34 131.83 123.54 131.27 123.76 130.7 C125.66 127.5 128.21 125.66 131.13 123.39 C131.83 122.77 132.53 122.15 133.26 121.51 C135.13 120.39 135.13 120.39 137.38 120.7 C137.96 120.92 138.54 121.15 139.13 121.39 C139.13 120.73 139.13 120.07 139.13 119.39 C140.92 119.33 142.72 119.29 144.51 119.26 C145.51 119.24 146.5 119.21 147.53 119.19 C150.13 119.39 150.13 119.39 152.13 121.39 C151.8 122.38 151.47 123.37 151.13 124.39 C150.47 124.39 149.81 124.39 149.13 124.39 C148.8 125.38 148.47 126.37 148.13 127.39 C143.14 131.47 143.14 131.47 139.26 131.14 C138.56 130.89 137.85 130.64 137.13 130.39 C137.46 131.38 137.79 132.37 138.13 133.39 C136.81 134.38 135.49 135.37 134.13 136.39 C133.14 135.73 132.15 135.07 131.13 134.39 C131.74 137.65 132.34 139.79 135.05 141.83 C136.5 142.68 137.97 143.51 139.45 144.31 C140.01 144.66 140.56 145.02 141.13 145.39 C141.13 146.05 141.13 146.71 141.13 147.39 C142.18 147.73 142.18 147.73 143.26 148.07 C146.83 149.7 149.2 151.79 152.13 154.39 C151.8 155.05 151.47 155.71 151.13 156.39 C150.47 156.06 149.81 155.73 149.13 155.39 C148.8 156.05 148.47 156.71 148.13 157.39 C146.38 157.47 144.63 157.52 142.88 157.57 C141.91 157.61 140.93 157.64 139.93 157.68 C136.72 157.34 135.38 156.68 133.13 154.39 C133.13 153.4 133.13 152.41 133.13 151.39 C132.02 151.23 132.02 151.23 130.88 151.07 C127.91 150.33 126.55 149.19 124.13 147.39 C121.48 146.67 121.48 146.67 119.13 146.39 C119.13 147.05 119.13 147.71 119.13 148.39 C112.77 154.24 107.13 158.01 98.32 157.95 C96.25 157.81 94.19 157.63 92.13 157.39 C91.8 156.4 91.47 155.41 91.13 154.39 C94.13 151.39 97.13 148.39 100.13 145.39 C100.13 146.05 100.13 146.71 100.13 147.39 C101.25 146.18 101.25 146.18 102.38 144.95 C104.96 142.54 105.8 141.83 109.13 141.39 C110.12 141.06 111.11 140.73 112.13 140.39 C109.36 136.58 106.73 134.23 102.69 131.82 C92.58 125.73 92.58 125.73 91.13 121.39 C89.26 120.58 89.26 120.58 87.07 120.2 C86.34 120.04 85.6 119.88 84.85 119.72 C84.28 119.61 83.72 119.5 83.13 119.39 C83.13 120.71 83.13 122.03 83.13 123.39 C82.8 124.71 82.47 126.03 82.13 127.39 C67.94 127.72 53.75 128.05 39.13 128.39 C39.13 130.37 39.13 132.35 39.13 134.39 C39.46 134.72 39.79 135.05 40.13 135.39 C40.2 136.9 40.22 138.43 40.19 139.95 C40.19 140.77 40.18 141.6 40.17 142.45 C40.15 143.41 40.15 143.41 40.13 144.39 C39.47 144.39 38.81 144.39 38.13 144.39 C37.8 145.38 37.47 146.37 37.13 147.39 C39.92 148.17 42.44 148.52 45.33 148.57 C46.15 148.59 46.97 148.61 47.81 148.63 C48.68 148.64 49.56 148.65 50.46 148.67 C51.81 148.69 51.81 148.69 53.19 148.72 C57.05 148.8 60.9 148.87 64.76 148.94 C67.58 148.99 70.39 149.05 73.21 149.1 C74.09 149.12 74.96 149.13 75.87 149.14 C82.02 149.27 82.02 149.27 83.13 150.39 C83.26 153.39 83.26 153.39 83.13 156.39 C81.56 157.96 79.97 157.53 77.78 157.55 C76.86 157.56 75.93 157.57 74.98 157.58 C73.97 157.58 72.97 157.58 71.93 157.59 C70.9 157.59 69.87 157.6 68.81 157.61 C66.62 157.61 64.44 157.62 62.25 157.63 C58.91 157.63 55.57 157.67 52.23 157.7 C50.11 157.7 47.99 157.71 45.87 157.71 C44.37 157.73 44.37 157.73 42.84 157.75 C34.04 157.72 34.04 157.72 30.13 154.39 C27.76 150.83 27.88 149.25 27.87 145.04 C27.86 143.79 27.86 142.55 27.86 141.27 C27.87 139.96 27.87 138.66 27.88 137.32 C27.87 136.02 27.87 134.71 27.86 133.37 C27.86 132.12 27.86 130.88 27.87 129.6 C27.87 128.46 27.87 127.31 27.87 126.13 C28.13 123.39 28.13 123.39 30.13 121.39 C27.16 121.39 24.19 121.39 21.13 121.39 C21.13 122.05 21.13 122.71 21.13 123.39 C21.13 136.39 21.13 149.39 21.13 162.39 C22.75 162.36 22.75 162.36 24.39 162.34 C34.64 162.2 44.89 162.07 55.14 161.94 C60.41 161.88 65.68 161.81 70.95 161.74 C76.05 161.67 81.15 161.6 86.25 161.54 C88.18 161.52 90.11 161.49 92.03 161.46 C106.1 161.26 120.08 161.64 134.13 162.39 C134.46 161.73 134.79 161.07 135.13 160.39 C135.13 161.05 135.13 161.71 135.13 162.39 C140.41 162.39 145.69 162.39 151.13 162.39 C151.13 165.69 151.13 168.99 151.13 172.39 C150.47 172.72 149.81 173.05 149.13 173.39 C150.12 173.72 151.11 174.05 152.13 174.39 C133.3 174.48 114.46 174.55 95.62 174.59 C86.88 174.61 78.13 174.64 69.38 174.69 C61.76 174.73 54.14 174.75 46.52 174.76 C42.48 174.77 38.45 174.78 34.41 174.81 C30.61 174.84 26.81 174.84 23.01 174.84 C21.62 174.84 20.22 174.85 18.83 174.86 C16.93 174.88 15.02 174.87 13.12 174.87 C11.52 174.87 11.52 174.87 9.89 174.88 C6.44 174.26 5.27 173.11 3.13 170.39 C2.59 168.06 2.59 168.06 2.52 165.48 C2.47 164.04 2.47 164.04 2.42 162.56 C2.41 161.54 2.4 160.51 2.38 159.45 C2.35 158.39 2.33 157.33 2.3 156.24 C2.22 152.95 2.18 149.67 2.13 146.39 C2.11 145.36 2.09 144.34 2.07 143.29 C2.01 140.42 1.97 137.56 1.94 134.7 C1.93 133.4 1.93 133.4 1.9 132.07 C1.9 127.72 2.09 124.35 4.13 120.39 C2.15 120.39 0.17 120.39 -1.87 120.39 C-1.54 121.05 -1.21 121.71 -0.87 122.39 C-0.74 125.22 -0.68 128.03 -0.66 130.87 C-0.66 131.71 -0.65 132.56 -0.65 133.43 C-0.64 135.22 -0.63 137.02 -0.63 138.81 C-0.62 141.54 -0.59 144.27 -0.56 147 C-0.55 148.75 -0.54 150.5 -0.54 152.24 C-0.53 153.05 -0.51 153.86 -0.5 154.7 C-0.52 160 -1.4 163.66 -3.87 168.39 C-5.76 170.22 -7.53 171.08 -9.87 172.39 C-7.89 172.72 -5.91 173.05 -3.87 173.39 C-3.87 174.05 -3.87 174.71 -3.87 175.39 C33.75 175.39 71.37 175.39 110.13 175.39 C110.13 218.39 110.13 218.39 109.13 231.39 C109.46 231.72 109.79 232.05 110.13 232.39 C110.83 244.3 109.5 252.36 101.69 261.51 C101.12 262.19 100.54 262.88 99.95 263.58 C98.13 265.39 98.13 265.39 95.97 266.44 C93.77 267.3 93.77 267.3 93.13 270.39 C91.13 271.01 91.13 271.01 89.13 271.39 C88.8 271.72 88.47 272.05 88.13 272.39 C86.13 272.43 84.13 272.43 82.13 272.39 C83.12 273.05 84.11 273.71 85.13 274.39 C78.28 275.19 71.53 275.55 64.63 275.51 C63.69 275.51 62.74 275.5 61.77 275.5 C55.49 275.45 49.22 275.31 42.94 275.01 C41.82 274.96 41.82 274.96 40.68 274.92 C37.02 274.71 35.25 274.46 32.13 272.39 C31.53 272.26 30.94 272.14 30.32 272.01 C23.86 270.16 19.4 265.14 16.03 259.56 C14.92 256.88 14.71 254.52 14.51 251.64 C14.43 250.65 14.36 249.67 14.28 248.65 C14.23 247.9 14.18 247.16 14.13 246.39 C13.8 246.39 13.47 246.39 13.13 246.39 C13.07 245.37 13.01 244.36 12.94 243.32 C12.29 238.81 10.25 235.65 7.13 232.39 C2.31 229.39 -3.35 229.89 -8.74 230.95 C-11.94 233.11 -12.12 235.73 -12.87 239.39 C-13.2 239.39 -13.53 239.39 -13.87 239.39 C-13.97 240.46 -14.07 241.53 -14.18 242.64 C-14.87 246.39 -14.87 246.39 -16.35 248.31 C-18.11 250.71 -18.4 252.34 -18.81 255.26 C-20.05 262.19 -23.11 266.35 -28.87 270.39 C-32.23 272.45 -34.8 272.62 -38.73 272.58 C-39.84 272.57 -40.96 272.57 -42.11 272.56 C-43.26 272.54 -44.42 272.53 -45.62 272.51 C-46.79 272.5 -47.97 272.49 -49.18 272.48 C-52.07 272.46 -54.97 272.42 -57.87 272.39 C-50.61 272.72 -43.35 273.05 -35.87 273.39 C-35.87 273.72 -35.87 274.05 -35.87 274.39 C-40.26 274.55 -44.66 274.71 -49.06 274.87 C-50.55 274.92 -52.05 274.98 -53.55 275.03 C-55.69 275.11 -57.84 275.19 -59.99 275.26 C-61.93 275.33 -61.93 275.33 -63.91 275.41 C-66.87 275.39 -66.87 275.39 -67.87 274.39 C-70.06 274.48 -72.25 274.63 -74.43 274.82 C-75.63 274.92 -76.83 275.03 -78.06 275.13 C-79.45 275.26 -79.45 275.26 -80.87 275.39 C-81.36 273.9 -81.36 273.9 -81.87 272.39 C-82.78 272.59 -83.68 272.8 -84.62 273.01 C-88.12 273.41 -88.97 273.16 -91.87 271.39 C-92.73 271.1 -93.6 270.81 -94.49 270.51 C-97.35 269.16 -97.54 268.13 -98.87 265.39 C-99.48 265.26 -100.1 265.14 -100.73 265.02 C-104.37 263.94 -105.59 260.96 -107.55 257.88 C-108.8 255.51 -109.49 253.49 -110.06 250.89 C-110.32 249.73 -110.59 248.58 -110.87 247.39 C-111.86 247.06 -112.85 246.73 -113.87 246.39 C-113.21 246.39 -112.55 246.39 -111.87 246.39 C-111.87 222.96 -111.87 199.53 -111.87 175.39 C-132.16 174.89 -132.16 174.89 -152.87 174.39 C-155.87 167.39 -155.87 167.39 -155.87 165.39 C-155.21 165.39 -154.55 165.39 -153.87 165.39 C-153.87 164.73 -153.87 164.07 -153.87 163.39 C-151.35 162.13 -149.45 162.18 -146.64 162.07 C-145.09 162.01 -145.09 162.01 -143.52 161.94 C-142.44 161.9 -141.36 161.86 -140.24 161.82 C-139.15 161.78 -138.07 161.74 -136.95 161.69 C-134.25 161.59 -131.56 161.48 -128.87 161.39 C-128.87 161.06 -128.87 160.73 -128.87 160.39 C-126.24 160.36 -123.62 160.34 -120.99 160.32 C-120.25 160.31 -119.5 160.31 -118.73 160.3 C-113.09 160.27 -113.09 160.27 -110.87 161.39 C-107.41 161.44 -103.97 161.41 -100.52 161.35 C-95.53 161.29 -90.8 161.67 -85.87 162.39 C-85.87 161.73 -85.87 161.07 -85.87 160.39 C-82.24 160.39 -78.61 160.39 -74.87 160.39 C-74.87 160.72 -74.87 161.05 -74.87 161.39 C-57.38 161.39 -39.89 161.39 -21.87 161.39 C-21.87 159.08 -21.87 156.77 -21.87 154.39 C-21.54 154.06 -21.21 153.73 -20.87 153.39 C-20.79 151.12 -20.78 148.85 -20.81 146.58 C-20.81 145.89 -20.81 145.21 -20.82 144.51 C-20.83 141.58 -20.86 138.65 -20.89 135.73 C-20.91 133.59 -20.92 131.46 -20.93 129.33 C-20.94 128.04 -20.95 126.76 -20.97 125.44 C-20.87 122.39 -20.87 122.39 -19.87 120.39 C-22.51 120.39 -25.15 120.39 -27.87 120.39 C-27.29 122.77 -26.65 125.05 -25.87 127.39 C-25.77 129.5 -25.74 131.62 -25.73 133.73 C-25.73 134.98 -25.73 136.22 -25.73 137.5 C-25.73 138.81 -25.74 140.11 -25.74 141.45 C-25.74 142.75 -25.73 144.06 -25.73 145.4 C-25.73 147.27 -25.73 147.27 -25.73 149.17 C-25.74 150.31 -25.74 151.46 -25.74 152.64 C-25.87 155.39 -25.87 155.39 -26.87 157.39 C-34.05 158.66 -34.05 158.66 -37.87 157.39 C-38.87 155.39 -38.87 155.39 -38.87 149.39 C-50.42 149.39 -61.97 149.39 -73.87 149.39 C-73.87 151.7 -73.87 154.01 -73.87 156.39 C-74.87 157.39 -74.87 157.39 -77.37 157.48 C-78.89 157.47 -78.89 157.47 -80.43 157.45 C-81.44 157.44 -82.45 157.43 -83.5 157.42 C-84.67 157.4 -84.67 157.4 -85.87 157.39 C-86.04 153.61 -86.2 149.84 -86.37 146.07 C-86.44 144.46 -86.44 144.46 -86.51 142.82 C-86.56 141.8 -86.6 140.77 -86.65 139.71 C-86.69 138.76 -86.73 137.81 -86.78 136.84 C-86.97 131.52 -86.97 131.52 -85.04 129.09 C-84.24 128.28 -83.44 127.47 -82.62 126.64 C-81.83 125.82 -81.04 125 -80.23 124.15 C-77.87 122.39 -77.87 122.39 -75.77 122.68 C-75.14 122.91 -74.52 123.14 -73.87 123.39 C-70.67 122.51 -70.67 122.51 -67.87 121.39 C-72.82 120.39 -77.52 120.25 -82.55 120.29 C-83.36 120.29 -84.17 120.29 -85.01 120.29 C-87.59 120.3 -90.17 120.31 -92.74 120.32 C-94.5 120.33 -96.25 120.33 -98.01 120.34 C-102.29 120.35 -106.58 120.36 -110.87 120.39 C-110.31 120.58 -109.76 120.78 -109.19 120.98 C-108.1 121.37 -108.1 121.37 -106.99 121.77 C-106.27 122.03 -105.55 122.29 -104.81 122.55 C-102.16 123.69 -101.07 124.76 -99.87 127.39 C-99.6 130.56 -99.72 132.91 -100.68 135.95 C-100.77 137.15 -100.77 137.15 -100.87 138.39 C-100.04 139.19 -99.22 139.99 -98.37 140.82 C-97.54 141.67 -96.72 142.51 -95.87 143.39 C-95.93 146.64 -95.93 146.64 -96.87 149.39 C-97.53 149.72 -98.19 150.05 -98.87 150.39 C-97.88 150.39 -96.89 150.39 -95.87 150.39 C-96.24 152.32 -96.24 152.32 -96.87 154.39 C-97.53 154.72 -98.19 155.05 -98.87 155.39 C-99.2 155.06 -99.53 154.73 -99.87 154.39 C-99.87 154.72 -99.87 155.05 -99.87 155.39 C-102.18 155.39 -104.49 155.39 -106.87 155.39 C-105.22 155.72 -103.57 156.05 -101.87 156.39 C-101.87 156.72 -101.87 157.05 -101.87 157.39 C-118.7 157.39 -135.53 157.39 -152.87 157.39 C-154.37 154.38 -153.96 151.59 -153.93 148.26 C-153.92 146.98 -153.91 145.7 -153.9 144.38 C-153.89 143.39 -153.88 142.4 -153.87 141.39 C-154.53 141.06 -155.19 140.73 -155.87 140.39 C-155.78 137.45 -155.67 134.51 -155.56 131.57 C-155.53 130.74 -155.51 129.91 -155.49 129.05 C-155.43 127.84 -155.43 127.84 -155.38 126.62 C-155.35 125.88 -155.33 125.14 -155.3 124.38 C-154.74 121.78 -154.05 120.9 -151.87 119.39 C-149.39 119.08 -149.39 119.08 -146.47 119.16 C-144.88 119.19 -144.88 119.19 -143.27 119.22 C-142.17 119.25 -141.07 119.29 -139.93 119.32 C-137.75 119.38 -135.58 119.43 -133.4 119.47 C-131.95 119.52 -131.95 119.52 -130.48 119.56 C-127.73 119.38 -126.17 118.86 -123.87 117.39 C-122.01 114.55 -121.42 111.71 -120.87 108.39 C-120.21 108.39 -119.55 108.39 -118.87 108.39 C-119.02 107.05 -119.02 107.05 -119.18 105.7 C-119.18 97.15 -114.26 88.44 -109.79 81.39 C-108.66 78.94 -108.83 77.05 -108.87 74.39 C-107.18 72.39 -107.18 72.39 -104.87 70.39 C-95.95 62.08 -95.95 62.08 -90.87 51.39 C-88.56 48.64 -88.56 48.64 -85.87 46.39 C-84.55 46.39 -83.23 46.39 -81.87 46.39 C-81.54 45.4 -81.21 44.41 -80.87 43.39 C-79.88 43.39 -78.89 43.39 -77.87 43.39 C-77.21 42.07 -76.55 40.75 -75.87 39.39 C-74.88 39.39 -73.89 39.39 -72.87 39.39 C-72.87 38.73 -72.87 38.07 -72.87 37.39 C-71.82 37.12 -70.76 36.85 -69.68 36.57 C-65.98 35.62 -65.98 35.62 -63.56 33.82 C-59.52 31.67 -55.38 31.64 -50.87 31.39 C-49.26 36.04 -47.83 40.55 -46.87 45.39 C-45.96 47.45 -45.96 47.45 -44.87 49.39 C-43.19 52.64 -41.69 55.96 -40.24 59.32 C-39.57 60.85 -39.57 60.85 -38.89 62.41 C-37.88 65.34 -37.75 67.33 -37.87 70.39 C-37.54 71.38 -37.21 72.37 -36.87 73.39 C-36.21 73.72 -35.55 74.05 -34.87 74.39 C-34.87 76.04 -34.87 77.69 -34.87 79.39 C-34.21 79.72 -33.55 80.05 -32.87 80.39 C-33.51 76.78 -34.16 73.18 -34.81 69.57 C-34.99 68.55 -35.17 67.52 -35.36 66.47 C-35.54 65.49 -35.71 64.5 -35.9 63.49 C-36.06 62.58 -36.22 61.68 -36.39 60.75 C-36.85 58.25 -36.85 58.25 -37.87 55.39 C-38.09 53.4 -38.31 51.41 -38.49 49.42 C-38.77 47.35 -38.77 47.35 -39.86 45.54 C-41.21 42.65 -41.33 40.06 -41.56 36.89 C-41.64 35.76 -41.73 34.64 -41.82 33.48 C-41.86 30.82 -41.68 28.89 -40.87 26.39 C-41.53 26.06 -42.19 25.73 -42.87 25.39 C-43.18 23.2 -43.18 23.2 -42.87 20.39 C-40.81 17.95 -40.81 17.95 -37.87 15.39 C-37.31 14.89 -36.76 14.39 -36.19 13.88 C-28.91 7.44 -22.26 3.75 -12.76 1.85 C-8.4 0.78 -4.82 0.02 0 0 Z M-51.87 33.39 C-50.87 37.39 -50.87 37.39 -50.87 37.39 Z M-106.87 74.39 C-107.2 75.05 -107.53 75.71 -107.87 76.39 C-107.21 76.39 -106.55 76.39 -105.87 76.39 C-106.2 75.73 -106.53 75.07 -106.87 74.39 Z M29.13 87.39 C30.13 89.39 30.13 89.39 30.13 89.39 Z M116.13 109.39 C117.13 111.39 117.13 111.39 117.13 111.39 Z M-102.87 117.39 C-102.87 117.72 -102.87 118.05 -102.87 118.39 C-100.89 118.39 -98.91 118.39 -96.87 118.39 C-96.87 118.06 -96.87 117.73 -96.87 117.39 C-98.85 117.39 -100.83 117.39 -102.87 117.39 Z M-92.87 117.39 C-92.87 117.72 -92.87 118.05 -92.87 118.39 C-88.91 118.39 -84.95 118.39 -80.87 118.39 C-80.87 118.06 -80.87 117.73 -80.87 117.39 C-84.83 117.39 -88.79 117.39 -92.87 117.39 Z M-3.87 118.39 C0.13 119.39 0.13 119.39 0.13 119.39 Z M20.13 118.39 C20.13 118.72 20.13 119.05 20.13 119.39 C22.77 119.39 25.41 119.39 28.13 119.39 C28.13 119.06 28.13 118.73 28.13 118.39 C25.49 118.39 22.85 118.39 20.13 118.39 Z M-29.87 123.39 C-28.87 126.39 -28.87 126.39 -28.87 126.39 Z M80.13 123.39 C80.79 124.05 81.45 124.71 82.13 125.39 C82.13 124.73 82.13 124.07 82.13 123.39 C81.47 123.39 80.81 123.39 80.13 123.39 Z M-49.87 125.39 C-45.87 126.39 -45.87 126.39 -45.87 126.39 Z M43.13 125.39 C43.13 125.72 43.13 126.05 43.13 126.39 C44.78 126.39 46.43 126.39 48.13 126.39 C48.13 126.06 48.13 125.73 48.13 125.39 C46.48 125.39 44.83 125.39 43.13 125.39 Z M51.13 125.39 C51.13 125.72 51.13 126.05 51.13 126.39 C54.1 126.39 57.07 126.39 60.13 126.39 C60.13 126.06 60.13 125.73 60.13 125.39 C57.16 125.39 54.19 125.39 51.13 125.39 Z M-142.74 129.26 C-145.36 133.1 -145.08 134.8 -144.26 139.2 C-143.87 141.39 -143.87 141.39 -143.87 145.39 C-143.54 146.71 -143.21 148.03 -142.87 149.39 C-131.32 149.39 -119.77 149.39 -107.87 149.39 C-108.49 145.49 -108.49 145.49 -110.55 143.65 C-113.52 142.03 -115.57 142.04 -118.95 142.09 C-120.11 142.1 -121.27 142.11 -122.46 142.12 C-123.67 142.15 -124.87 142.17 -126.12 142.2 C-127.34 142.21 -128.56 142.22 -129.82 142.24 C-132.84 142.27 -135.85 142.32 -138.87 142.39 C-138.21 141.73 -137.55 141.07 -136.87 140.39 C-138.19 140.39 -139.51 140.39 -140.87 140.39 C-140.54 138.74 -140.21 137.09 -139.87 135.39 C-133.73 134.09 -127.73 134.36 -121.5 134.51 C-120.68 134.52 -119.86 134.53 -119.01 134.55 C-117.89 134.57 -117.89 134.57 -116.74 134.6 C-114.62 134.55 -114.62 134.55 -112.87 132.39 C-112.87 131.4 -112.87 130.41 -112.87 129.39 C-113.51 129.36 -114.15 129.33 -114.81 129.31 C-117.72 129.19 -120.64 129.07 -123.56 128.95 C-125.07 128.89 -125.07 128.89 -126.61 128.83 C-127.58 128.79 -128.56 128.74 -129.57 128.7 C-130.46 128.66 -131.36 128.63 -132.28 128.59 C-134.87 128.39 -134.87 128.39 -137.52 127.75 C-140.1 127.08 -140.1 127.08 -142.74 129.26 Z M-115.87 125.39 C-115.87 126.05 -115.87 126.71 -115.87 127.39 C-117.52 127.39 -119.17 127.39 -120.87 127.39 C-120.87 127.72 -120.87 128.05 -120.87 128.39 C-118.89 128.39 -116.91 128.39 -114.87 128.39 C-115.2 127.4 -115.53 126.41 -115.87 125.39 Z M-101.87 127.39 C-102.2 128.05 -102.53 128.71 -102.87 129.39 C-102.21 129.39 -101.55 129.39 -100.87 129.39 C-101.2 128.73 -101.53 128.07 -101.87 127.39 Z M-72.49 133.89 C-74.19 136.49 -74.19 136.49 -73.87 140.39 C-66.71 141.24 -59.64 141.57 -52.43 141.57 C-51.45 141.58 -50.47 141.6 -49.46 141.61 C-48.53 141.61 -47.59 141.61 -46.62 141.62 C-45.78 141.62 -44.94 141.62 -44.07 141.63 C-41.58 141.52 -41.58 141.52 -38.87 139.39 C-38.46 136.75 -38.46 136.75 -38.62 133.82 C-38.63 132.83 -38.65 131.84 -38.66 130.82 C-38.6 128.44 -38.6 128.44 -39.87 127.39 C-51.13 126.27 -63.84 125.64 -72.49 133.89 Z M-27.87 127.39 C-27.87 133.99 -27.87 140.59 -27.87 147.39 C-27.54 147.39 -27.21 147.39 -26.87 147.39 C-26.87 140.79 -26.87 134.19 -26.87 127.39 C-27.2 127.39 -27.53 127.39 -27.87 127.39 Z M37.13 128.39 C37.13 130.04 37.13 131.69 37.13 133.39 C37.46 133.39 37.79 133.39 38.13 133.39 C38.13 131.74 38.13 130.09 38.13 128.39 C37.8 128.39 37.47 128.39 37.13 128.39 Z M-102.87 130.39 C-102.21 131.05 -101.55 131.71 -100.87 132.39 C-100.87 131.73 -100.87 131.07 -100.87 130.39 C-101.53 130.39 -102.19 130.39 -102.87 130.39 Z M104.13 130.39 C105.13 132.39 105.13 132.39 105.13 132.39 Z M-116.87 139.39 C-116.21 140.05 -115.55 140.71 -114.87 141.39 C-114.87 140.73 -114.87 140.07 -114.87 139.39 C-115.53 139.39 -116.19 139.39 -116.87 139.39 Z M-135.87 140.39 C-135.87 140.72 -135.87 141.05 -135.87 141.39 C-134.22 141.39 -132.57 141.39 -130.87 141.39 C-130.87 141.06 -130.87 140.73 -130.87 140.39 C-132.52 140.39 -134.17 140.39 -135.87 140.39 Z M-69.87 146.39 C-69.87 146.72 -69.87 147.05 -69.87 147.39 C-67.89 147.39 -65.91 147.39 -63.87 147.39 C-63.87 147.06 -63.87 146.73 -63.87 146.39 C-65.85 146.39 -67.83 146.39 -69.87 146.39 Z M-54.87 147.39 C-54.87 147.72 -54.87 148.05 -54.87 148.39 C-50.91 148.39 -46.95 148.39 -42.87 148.39 C-42.87 148.06 -42.87 147.73 -42.87 147.39 C-46.83 147.39 -50.79 147.39 -54.87 147.39 Z M79.13 150.39 C79.13 151.05 79.13 151.71 79.13 152.39 C80.12 152.39 81.11 152.39 82.13 152.39 C81.8 151.73 81.47 151.07 81.13 150.39 C80.47 150.39 79.81 150.39 79.13 150.39 Z M-77.87 153.39 C-78.2 154.38 -78.53 155.37 -78.87 156.39 C-77.55 156.06 -76.23 155.73 -74.87 155.39 C-75.2 154.73 -75.53 154.07 -75.87 153.39 C-76.53 153.39 -77.19 153.39 -77.87 153.39 Z M-149.87 155.39 C-149.87 155.72 -149.87 156.05 -149.87 156.39 C-145.91 156.39 -141.95 156.39 -137.87 156.39 C-137.87 156.06 -137.87 155.73 -137.87 155.39 C-141.83 155.39 -145.79 155.39 -149.87 155.39 Z M-122.87 155.39 C-122.87 155.72 -122.87 156.05 -122.87 156.39 C-121.22 156.39 -119.57 156.39 -117.87 156.39 C-117.87 156.06 -117.87 155.73 -117.87 155.39 C-119.52 155.39 -121.17 155.39 -122.87 155.39 Z M102.13 171.39 C106.13 172.39 106.13 172.39 106.13 172.39 Z M115.13 171.39 C115.13 171.72 115.13 172.05 115.13 172.39 C116.78 172.39 118.43 172.39 120.13 172.39 C120.13 172.06 120.13 171.73 120.13 171.39 C118.48 171.39 116.83 171.39 115.13 171.39 Z M145.13 171.39 C145.79 172.05 146.45 172.71 147.13 173.39 C147.13 172.73 147.13 172.07 147.13 171.39 C146.47 171.39 145.81 171.39 145.13 171.39 Z M-13.87 174.39 C-13.87 174.72 -13.87 175.05 -13.87 175.39 C-10.9 175.39 -7.93 175.39 -4.87 175.39 C-4.87 175.06 -4.87 174.73 -4.87 174.39 C-7.84 174.39 -10.81 174.39 -13.87 174.39 Z M108.13 181.39 C108.13 184.36 108.13 187.33 108.13 190.39 C108.46 190.39 108.79 190.39 109.13 190.39 C109.13 187.42 109.13 184.45 109.13 181.39 C108.8 181.39 108.47 181.39 108.13 181.39 Z M-97.87 189.39 C-97.87 191.7 -97.87 194.01 -97.87 196.39 C-97.54 196.39 -97.21 196.39 -96.87 196.39 C-96.87 194.08 -96.87 191.77 -96.87 189.39 C-97.2 189.39 -97.53 189.39 -97.87 189.39 Z M-94.87 190.39 C-96.55 195.49 -97.14 200.02 -97.06 205.4 C-97.06 206.14 -97.06 206.88 -97.05 207.64 C-97.04 209.97 -97.02 212.3 -96.99 214.64 C-96.98 216.22 -96.97 217.8 -96.97 219.38 C-96.95 222.26 -96.93 225.15 -96.9 228.03 C-96.84 234.82 -96.87 241.6 -96.87 248.39 C-96.21 248.72 -95.55 249.05 -94.87 249.39 C-92.3 251.95 -89.75 254.51 -87.24 257.14 C-83.11 260.53 -78.02 260.48 -72.87 260.39 C-71.8 260.22 -70.72 260.05 -69.62 259.88 C-65.99 259.4 -62.63 259.33 -58.98 259.43 C-57.08 259.46 -57.08 259.46 -55.14 259.49 C-52.49 259.55 -49.84 259.61 -47.19 259.69 C-45.92 259.71 -44.66 259.72 -43.36 259.74 C-42.21 259.77 -41.06 259.8 -39.87 259.82 C-36.22 259.29 -35.09 258.27 -32.87 255.39 C-32.25 253.18 -32.25 253.18 -32.24 250.89 C-32.13 248.29 -32 246.64 -30.82 244.31 C-29.42 241.49 -30.19 239.37 -30.87 236.39 C-29.88 236.39 -28.89 236.39 -27.87 236.39 C-27.87 234.74 -27.87 233.09 -27.87 231.39 C-27.21 231.39 -26.55 231.39 -25.87 231.39 C-24.85 229.73 -23.85 228.06 -22.87 226.39 C-19.54 221.79 -17.41 219.66 -11.87 218.39 C-11.24 218.19 -10.62 218 -9.98 217.8 C-2.31 215.62 6.57 215.86 14.13 218.39 C14.13 219.05 14.13 219.71 14.13 220.39 C16.11 221.75 18.11 223.08 20.13 224.39 C22.01 225.95 22.01 225.95 23.13 227.39 C23.13 228.38 23.13 229.37 23.13 230.39 C24.62 231.38 24.62 231.38 26.13 232.39 C26.26 235.82 26.26 235.82 26.13 239.39 C26.46 240.38 26.79 241.37 27.13 242.39 C27.28 243.38 27.42 244.37 27.57 245.39 C27.96 248.55 27.96 248.55 30.13 251.39 C30.61 252.4 31.08 253.41 31.57 254.45 C32.95 257.61 32.95 257.61 36.13 259.39 C38.52 259.64 38.52 259.64 41.18 259.55 C42.69 259.53 42.69 259.53 44.22 259.51 C45.82 259.48 45.82 259.48 47.44 259.45 C54.36 259.37 61.18 259.34 68.07 259.95 C79.18 260.85 79.18 260.85 88.57 255.26 C92.5 251.45 94.45 248.81 95.13 243.39 C95.13 243.06 95.13 242.73 95.13 242.39 C95.13 225.39 95.13 208.39 95.13 191.39 C90.77 190.01 89.18 191.29 85.13 193.39 C82.7 194.17 80.26 194.87 77.79 195.54 C74.98 196.37 74.98 196.37 71.84 197.91 C67.73 199.55 64.12 200.1 59.76 200.51 C55.06 200.59 55.06 200.59 51.13 202.39 C48.46 202.53 45.81 202.43 43.13 202.39 C43.46 203.38 43.79 204.37 44.13 205.39 C43.21 205.37 42.28 205.36 41.32 205.35 C39.53 205.34 39.53 205.34 37.69 205.32 C35.9 205.31 35.9 205.31 34.07 205.29 C31.24 205.05 31.24 205.05 30.13 206.39 C24.6 206.62 24.6 206.62 22.13 205.39 C20.66 205.29 19.17 205.26 17.69 205.26 C16.91 205.26 16.13 205.25 15.32 205.25 C12.95 205.3 12.95 205.3 10.13 206.39 C3.16 207.68 -6.38 208.63 -12.87 205.39 C-18.26 205.1 -23.66 205.09 -28.99 206.01 C-35.38 206.63 -42.1 205.27 -47.87 202.39 C-49.58 202.47 -51.29 202.63 -52.99 202.82 C-53.9 202.92 -54.81 203.03 -55.75 203.13 C-56.45 203.21 -57.15 203.3 -57.87 203.39 C-58.36 202.4 -58.36 202.4 -58.87 201.39 C-60.85 201.39 -62.83 201.39 -64.87 201.39 C-64.87 201.06 -64.87 200.73 -64.87 200.39 C-67.53 199.59 -70.2 198.8 -72.87 198.01 C-73.98 197.68 -73.98 197.68 -75.12 197.34 C-78.81 196.25 -82.49 195.22 -86.24 194.35 C-89.87 193.39 -89.87 193.39 -92.87 191.39 C-93.53 191.06 -94.19 190.73 -94.87 190.39 Z M-98.87 196.39 C-97.87 199.39 -97.87 199.39 -97.87 199.39 Z M108.13 196.39 C108.13 199.36 108.13 202.33 108.13 205.39 C108.46 205.39 108.79 205.39 109.13 205.39 C109.13 202.42 109.13 199.45 109.13 196.39 C108.8 196.39 108.47 196.39 108.13 196.39 Z M-98.87 205.39 C-98.87 208.03 -98.87 210.67 -98.87 213.39 C-98.54 213.39 -98.21 213.39 -97.87 213.39 C-97.87 210.75 -97.87 208.11 -97.87 205.39 C-98.2 205.39 -98.53 205.39 -98.87 205.39 Z M3.13 205.39 C3.13 205.72 3.13 206.05 3.13 206.39 C5.44 206.39 7.75 206.39 10.13 206.39 C10.13 206.06 10.13 205.73 10.13 205.39 C7.82 205.39 5.51 205.39 3.13 205.39 Z M24.13 205.39 C24.13 205.72 24.13 206.05 24.13 206.39 C25.78 206.39 27.43 206.39 29.13 206.39 C29.13 206.06 29.13 205.73 29.13 205.39 C27.48 205.39 25.83 205.39 24.13 205.39 Z M108.13 208.39 C108.13 210.37 108.13 212.35 108.13 214.39 C108.46 214.39 108.79 214.39 109.13 214.39 C109.13 212.41 109.13 210.43 109.13 208.39 C108.8 208.39 108.47 208.39 108.13 208.39 Z M-98.87 228.39 C-97.87 231.39 -97.87 231.39 -97.87 231.39 Z M-98.87 235.39 C-97.87 239.39 -97.87 239.39 -97.87 239.39 Z M108.13 235.39 C108.13 237.37 108.13 239.35 108.13 241.39 C108.46 241.39 108.79 241.39 109.13 241.39 C109.13 239.41 109.13 237.43 109.13 235.39 C108.8 235.39 108.47 235.39 108.13 235.39 Z M-16.87 242.39 C-15.87 246.39 -15.87 246.39 -15.87 246.39 Z M-66.87 272.39 C-66.87 272.72 -66.87 273.05 -66.87 273.39 C-65.22 273.39 -63.57 273.39 -61.87 273.39 C-61.87 273.06 -61.87 272.73 -61.87 272.39 C-63.52 272.39 -65.17 272.39 -66.87 272.39 Z M57.13 272.39 C57.13 272.72 57.13 273.05 57.13 273.39 C60.1 273.39 63.07 273.39 66.13 273.39 C66.13 273.06 66.13 272.73 66.13 272.39 C63.16 272.39 60.19 272.39 57.13 272.39 Z M67.13 272.39 C67.13 272.72 67.13 273.05 67.13 273.39 C69.11 273.39 71.09 273.39 73.13 273.39 C73.13 273.06 73.13 272.73 73.13 272.39 C71.15 272.39 69.17 272.39 67.13 272.39 Z " fill="#3A3A3A" transform="translate(451.86767578125,444.614990234375)"/>
<path d="M0 0 C3.63 0 7.26 0 11 0 C11 0.66 11 1.32 11 2 C48.62 2 86.24 2 125 2 C125 45 125 45 124 58 C124.33 58.33 124.66 58.66 125 59 C125.7 70.92 124.37 78.98 116.56 88.12 C115.99 88.81 115.41 89.49 114.82 90.2 C113 92 113 92 110.84 93.05 C108.64 93.91 108.64 93.91 108 97 C106 97.62 106 97.62 104 98 C103.67 98.33 103.34 98.66 103 99 C101 99.04 99 99.04 97 99 C97.99 99.66 98.98 100.32 100 101 C93.14 101.81 86.4 102.16 79.5 102.12 C78.08 102.12 78.08 102.12 76.64 102.11 C70.36 102.07 64.09 101.92 57.81 101.62 C57.06 101.59 56.32 101.56 55.55 101.53 C51.89 101.33 50.12 101.08 47 99 C46.4 98.88 45.8 98.75 45.19 98.62 C38.72 96.78 34.26 91.76 30.9 86.17 C29.79 83.49 29.58 81.13 29.38 78.25 C29.26 76.77 29.26 76.77 29.15 75.27 C29.07 74.14 29.07 74.14 29 73 C28.67 73 28.34 73 28 73 C27.91 71.48 27.91 71.48 27.81 69.94 C27.16 65.43 25.12 62.27 22 59 C17.18 56 11.52 56.51 6.12 57.56 C2.93 59.72 2.74 62.35 2 66 C1.67 66 1.34 66 1 66 C0.9 67.07 0.79 68.14 0.69 69.25 C0 73 0 73 -1.48 74.93 C-3.24 77.33 -3.53 78.95 -3.94 81.88 C-5.18 88.8 -8.24 92.97 -14 97 C-17.37 99.06 -19.94 99.24 -23.86 99.2 C-24.97 99.19 -26.09 99.18 -27.24 99.18 C-28.4 99.16 -29.56 99.14 -30.75 99.12 C-31.92 99.12 -33.1 99.11 -34.31 99.1 C-37.21 99.07 -40.1 99.04 -43 99 C-32.11 99.5 -32.11 99.5 -21 100 C-21 100.33 -21 100.66 -21 101 C-25.4 101.17 -29.79 101.33 -34.19 101.48 C-35.69 101.54 -37.18 101.59 -38.68 101.65 C-40.83 101.73 -42.97 101.81 -45.12 101.88 C-47.06 101.95 -47.06 101.95 -49.04 102.02 C-52 102 -52 102 -53 101 C-55.19 101.09 -57.38 101.25 -59.56 101.44 C-60.76 101.54 -61.96 101.64 -63.19 101.75 C-64.12 101.83 -65.05 101.91 -66 102 C-66.33 101.01 -66.66 100.02 -67 99 C-68.36 99.31 -68.36 99.31 -69.75 99.62 C-73.26 100.03 -74.1 99.78 -77 98 C-77.87 97.71 -78.73 97.42 -79.62 97.12 C-82.48 95.77 -82.67 94.74 -84 92 C-84.92 91.82 -84.92 91.82 -85.86 91.63 C-89.5 90.55 -90.72 87.57 -92.68 84.5 C-93.94 82.12 -94.63 80.11 -95.19 77.5 C-95.46 76.35 -95.72 75.19 -96 74 C-96.99 73.67 -97.98 73.34 -99 73 C-98.34 73 -97.68 73 -97 73 C-97 49.57 -97 26.14 -97 2 C-64.99 2 -32.98 2 0 2 C0 1.34 0 0.68 0 0 Z M1 1 C1 1.33 1 1.66 1 2 C3.97 2 6.94 2 10 2 C10 1.67 10 1.34 10 1 C7.03 1 4.06 1 1 1 Z M123 8 C123 10.97 123 13.94 123 17 C123.33 17 123.66 17 124 17 C124 14.03 124 11.06 124 8 C123.67 8 123.34 8 123 8 Z M-83 16 C-83 18.31 -83 20.62 -83 23 C-82.67 23 -82.34 23 -82 23 C-82 20.69 -82 18.38 -82 16 C-82.33 16 -82.66 16 -83 16 Z M-80 17 C-81.68 22.1 -82.27 26.63 -82.2 32.02 C-82.19 32.75 -82.19 33.49 -82.19 34.25 C-82.18 36.58 -82.15 38.92 -82.12 41.25 C-82.11 42.83 -82.11 44.41 -82.1 45.99 C-82.08 48.88 -82.06 51.76 -82.03 54.65 C-81.97 61.43 -82 68.22 -82 75 C-81.34 75.33 -80.68 75.66 -80 76 C-77.44 78.56 -74.88 81.13 -72.38 83.75 C-68.24 87.15 -63.15 87.1 -58 87 C-56.93 86.83 -55.86 86.67 -54.75 86.49 C-51.12 86.02 -47.77 85.95 -44.11 86.04 C-42.21 86.07 -42.21 86.07 -40.27 86.11 C-37.62 86.16 -34.97 86.23 -32.32 86.3 C-31.05 86.32 -29.79 86.34 -28.49 86.36 C-27.34 86.38 -26.19 86.41 -25.01 86.44 C-21.35 85.91 -20.22 84.89 -18 82 C-17.39 79.79 -17.39 79.79 -17.38 77.5 C-17.26 74.9 -17.13 73.26 -15.95 70.92 C-14.55 68.1 -15.32 65.98 -16 63 C-15.01 63 -14.02 63 -13 63 C-13 61.35 -13 59.7 -13 58 C-12.34 58 -11.68 58 -11 58 C-9.98 56.35 -8.98 54.68 -8 53 C-4.67 48.41 -2.54 46.28 3 45 C3.62 44.81 4.25 44.61 4.89 44.41 C12.56 42.24 21.44 42.48 29 45 C29 45.66 29 46.32 29 47 C30.98 48.36 32.98 49.69 35 51 C36.88 52.56 36.88 52.56 38 54 C38 54.99 38 55.98 38 57 C39.49 57.99 39.49 57.99 41 59 C41.12 62.44 41.12 62.44 41 66 C41.33 66.99 41.66 67.98 42 69 C42.14 69.99 42.29 70.98 42.44 72 C42.83 75.17 42.83 75.17 45 78 C45.47 79.01 45.95 80.02 46.44 81.06 C47.82 84.22 47.82 84.22 51 86 C53.39 86.26 53.39 86.26 56.05 86.16 C57.55 86.14 57.55 86.14 59.09 86.13 C60.68 86.09 60.68 86.09 62.31 86.06 C69.23 85.98 76.05 85.96 82.94 86.56 C94.05 87.46 94.05 87.46 103.44 81.88 C107.36 78.06 109.32 75.42 110 70 C110 69.67 110 69.34 110 69 C110 52 110 35 110 18 C105.64 16.63 104.05 17.9 100 20 C97.57 20.79 95.13 21.48 92.66 22.16 C89.85 22.99 89.85 22.99 86.71 24.52 C82.6 26.16 78.99 26.72 74.62 27.12 C69.93 27.2 69.93 27.2 66 29 C63.33 29.14 60.68 29.04 58 29 C58.33 29.99 58.66 30.98 59 32 C58.07 31.99 57.15 31.98 56.19 31.96 C54.4 31.95 54.4 31.95 52.56 31.94 C50.77 31.92 50.77 31.92 48.94 31.9 C46.11 31.66 46.11 31.66 45 33 C39.47 33.24 39.47 33.24 37 32 C35.52 31.9 34.04 31.87 32.56 31.88 C31.78 31.87 31 31.87 30.19 31.87 C27.82 31.92 27.82 31.92 25 33 C18.03 34.29 8.48 35.24 2 32 C-3.39 31.72 -8.8 31.71 -14.12 32.62 C-20.51 33.24 -27.23 31.88 -33 29 C-34.71 29.09 -36.42 29.24 -38.12 29.44 C-39.04 29.54 -39.95 29.64 -40.88 29.75 C-41.58 29.83 -42.28 29.91 -43 30 C-43.5 29.01 -43.5 29.01 -44 28 C-45.98 28 -47.96 28 -50 28 C-50 27.67 -50 27.34 -50 27 C-52.67 26.21 -55.33 25.41 -58 24.62 C-59.12 24.29 -59.12 24.29 -60.25 23.95 C-63.95 22.86 -67.63 21.84 -71.38 20.96 C-75 20 -75 20 -78 18 C-78.66 17.67 -79.32 17.34 -80 17 Z M-84 23 C-83 26 -83 26 -83 26 Z M123 23 C123 25.97 123 28.94 123 32 C123.33 32 123.66 32 124 32 C124 29.03 124 26.06 124 23 C123.67 23 123.34 23 123 23 Z M-84 32 C-84 34.64 -84 37.28 -84 40 C-83.67 40 -83.34 40 -83 40 C-83 37.36 -83 34.72 -83 32 C-83.33 32 -83.66 32 -84 32 Z M18 32 C18 32.33 18 32.66 18 33 C20.31 33 22.62 33 25 33 C25 32.67 25 32.34 25 32 C22.69 32 20.38 32 18 32 Z M39 32 C39 32.33 39 32.66 39 33 C40.65 33 42.3 33 44 33 C44 32.67 44 32.34 44 32 C42.35 32 40.7 32 39 32 Z M123 35 C123 36.98 123 38.96 123 41 C123.33 41 123.66 41 124 41 C124 39.02 124 37.04 124 35 C123.67 35 123.34 35 123 35 Z M-84 55 C-83 58 -83 58 -83 58 Z M-84 62 C-83 66 -83 66 -83 66 Z M123 62 C123 63.98 123 65.96 123 68 C123.33 68 123.66 68 124 68 C124 66.02 124 64.04 124 62 C123.67 62 123.34 62 123 62 Z M-2 69 C-1 73 -1 73 -1 73 Z M-52 99 C-52 99.33 -52 99.66 -52 100 C-50.35 100 -48.7 100 -47 100 C-47 99.67 -47 99.34 -47 99 C-48.65 99 -50.3 99 -52 99 Z M72 99 C72 99.33 72 99.66 72 100 C74.97 100 77.94 100 81 100 C81 99.67 81 99.34 81 99 C78.03 99 75.06 99 72 99 Z M82 99 C82 99.33 82 99.66 82 100 C83.98 100 85.96 100 88 100 C88 99.67 88 99.34 88 99 C86.02 99 84.04 99 82 99 Z " fill="#3B3B3A" transform="translate(437,618)"/>
<path d="M0 0 C0.95 -0 1.9 -0.01 2.88 -0.01 C6.03 -0.02 9.18 -0.02 12.33 -0.02 C14.52 -0.03 16.7 -0.03 18.89 -0.03 C23.47 -0.04 28.06 -0.04 32.64 -0.04 C38.52 -0.04 44.4 -0.05 50.28 -0.07 C54.8 -0.08 59.31 -0.08 63.82 -0.08 C65.99 -0.08 68.16 -0.09 70.33 -0.1 C73.36 -0.11 76.39 -0.1 79.42 -0.1 C80.32 -0.1 81.22 -0.11 82.15 -0.11 C82.97 -0.11 83.8 -0.11 84.65 -0.1 C85.37 -0.1 86.09 -0.1 86.82 -0.1 C89.24 0.19 90.81 0.81 92.84 2.15 C93.65 5.21 93.65 5.21 93.84 8.15 C92.31 9.67 90.91 9.31 88.78 9.35 C87.92 9.37 87.06 9.39 86.17 9.41 C85.24 9.43 84.3 9.44 83.34 9.46 C82.38 9.48 81.43 9.5 80.45 9.52 C77.39 9.59 74.33 9.65 71.28 9.71 C69.21 9.75 67.14 9.79 65.08 9.84 C60 9.95 54.92 10.05 49.84 10.15 C49.8 12.14 49.8 14.15 49.84 16.15 C50.17 16.48 50.5 16.81 50.84 17.15 C50.91 18.66 50.92 20.19 50.9 21.71 C50.89 22.53 50.88 23.36 50.88 24.21 C50.86 25.17 50.86 25.17 50.84 26.15 C50.18 26.15 49.52 26.15 48.84 26.15 C48.51 27.14 48.18 28.13 47.84 29.15 C50.63 29.93 53.15 30.28 56.04 30.33 C56.86 30.35 57.68 30.37 58.52 30.39 C59.39 30.4 60.27 30.41 61.16 30.43 C62.07 30.44 62.97 30.46 63.9 30.48 C67.75 30.56 71.61 30.63 75.47 30.7 C78.28 30.75 81.1 30.81 83.91 30.86 C85.23 30.88 85.23 30.88 86.58 30.91 C92.73 31.03 92.73 31.03 93.84 32.15 C93.97 35.15 93.97 35.15 93.84 38.15 C92.26 39.72 90.68 39.29 88.49 39.31 C87.57 39.32 86.64 39.33 85.69 39.34 C84.68 39.34 83.67 39.34 82.64 39.35 C81.09 39.36 81.09 39.36 79.52 39.37 C77.33 39.38 75.14 39.38 72.96 39.39 C69.62 39.4 66.28 39.43 62.94 39.46 C60.82 39.46 58.7 39.47 56.57 39.47 C55.08 39.49 55.08 39.49 53.55 39.51 C44.75 39.48 44.75 39.48 40.84 36.15 C38.47 32.59 38.58 31.01 38.57 26.8 C38.57 25.55 38.57 24.31 38.57 23.03 C38.57 21.72 38.58 20.42 38.59 19.08 C38.58 17.78 38.57 16.47 38.57 15.13 C38.57 13.88 38.57 12.64 38.57 11.36 C38.58 10.22 38.58 9.07 38.58 7.9 C38.84 5.15 38.84 5.15 40.84 3.15 C37.87 3.15 34.9 3.15 31.84 3.15 C31.84 3.81 31.84 4.47 31.84 5.15 C31.84 18.15 31.84 31.15 31.84 44.15 C33.46 44.12 33.46 44.12 35.1 44.1 C45.35 43.96 55.6 43.83 65.85 43.7 C71.12 43.64 76.39 43.57 81.65 43.5 C86.76 43.43 91.86 43.36 96.96 43.3 C98.89 43.28 100.81 43.25 102.74 43.22 C116.81 43.02 130.79 43.4 144.84 44.15 C145.17 43.49 145.5 42.83 145.84 42.15 C145.84 42.81 145.84 43.47 145.84 44.15 C151.12 44.15 156.4 44.15 161.84 44.15 C161.84 47.45 161.84 50.75 161.84 54.15 C161.18 54.48 160.52 54.81 159.84 55.15 C160.83 55.48 161.82 55.81 162.84 56.15 C144 56.24 125.17 56.31 106.33 56.35 C97.58 56.37 88.84 56.4 80.09 56.45 C72.47 56.49 64.85 56.51 57.23 56.52 C53.19 56.53 49.15 56.54 45.12 56.57 C41.32 56.6 37.52 56.6 33.72 56.6 C32.33 56.6 30.93 56.61 29.54 56.62 C27.63 56.64 25.73 56.63 23.83 56.63 C22.23 56.63 22.23 56.63 20.6 56.64 C17.15 56.02 15.98 54.87 13.84 52.15 C13.29 49.82 13.29 49.82 13.23 47.24 C13.18 45.8 13.18 45.8 13.13 44.32 C13.12 43.3 13.1 42.27 13.09 41.21 C13.06 40.15 13.04 39.09 13.01 38 C12.93 34.71 12.88 31.43 12.84 28.15 C12.82 27.12 12.8 26.1 12.78 25.05 C12.72 22.18 12.68 19.32 12.65 16.46 C12.63 15.16 12.63 15.16 12.61 13.83 C12.61 9.48 12.8 6.11 14.84 2.15 C12.86 2.15 10.88 2.15 8.84 2.15 C9.17 2.81 9.5 3.47 9.84 4.15 C9.96 6.98 10.03 9.79 10.04 12.63 C10.05 13.47 10.05 14.32 10.06 15.19 C10.07 16.98 10.08 18.78 10.08 20.57 C10.09 23.3 10.12 26.03 10.15 28.76 C10.16 30.51 10.16 32.26 10.17 34 C10.18 34.81 10.19 35.62 10.21 36.46 C10.19 41.76 9.37 45.45 6.84 50.15 C1.57 54.39 -3.25 56.4 -10 56.39 C-11.75 56.39 -11.75 56.39 -13.54 56.39 C-14.81 56.39 -16.08 56.38 -17.4 56.37 C-18.76 56.37 -20.12 56.37 -21.48 56.37 C-25.16 56.37 -28.85 56.36 -32.53 56.35 C-36.39 56.34 -40.24 56.33 -44.1 56.33 C-51.39 56.33 -58.69 56.31 -65.98 56.29 C-74.29 56.27 -82.6 56.26 -90.9 56.25 C-107.99 56.23 -125.07 56.19 -142.16 56.15 C-145.16 49.4 -145.16 49.4 -145.16 47.15 C-144.5 47.15 -143.84 47.15 -143.16 47.15 C-143.16 46.49 -143.16 45.83 -143.16 45.15 C-140.64 43.89 -138.75 43.94 -135.93 43.83 C-134.39 43.77 -134.39 43.77 -132.81 43.7 C-131.73 43.66 -130.65 43.62 -129.53 43.58 C-128.45 43.54 -127.36 43.5 -126.24 43.45 C-123.55 43.35 -120.85 43.24 -118.16 43.15 C-118.16 42.82 -118.16 42.49 -118.16 42.15 C-115.53 42.12 -112.91 42.1 -110.28 42.08 C-109.54 42.07 -108.79 42.07 -108.02 42.06 C-102.39 42.03 -102.39 42.03 -100.16 43.15 C-96.7 43.2 -93.26 43.17 -89.81 43.11 C-84.82 43.05 -80.09 43.43 -75.16 44.15 C-75.16 43.49 -75.16 42.83 -75.16 42.15 C-71.53 42.15 -67.9 42.15 -64.16 42.15 C-64.16 42.48 -64.16 42.81 -64.16 43.15 C-46.67 43.15 -29.18 43.15 -11.16 43.15 C-11.16 40.84 -11.16 38.53 -11.16 36.15 C-10.83 35.82 -10.5 35.49 -10.16 35.15 C-10.08 32.88 -10.08 30.61 -10.1 28.34 C-10.1 27.65 -10.1 26.97 -10.11 26.27 C-10.13 23.34 -10.15 20.41 -10.18 17.49 C-10.2 15.35 -10.21 13.22 -10.22 11.09 C-10.23 9.8 -10.25 8.52 -10.26 7.2 C-10.16 4.15 -10.16 4.15 -9.16 2.15 C-10.15 1.65 -10.15 1.65 -11.16 1.15 C-7.73 -0.57 -3.78 -0 0 0 Z M90.84 5.15 C91.5 5.81 92.16 6.47 92.84 7.15 C92.84 6.49 92.84 5.83 92.84 5.15 C92.18 5.15 91.52 5.15 90.84 5.15 Z M53.84 7.15 C53.84 7.48 53.84 7.81 53.84 8.15 C55.49 8.15 57.14 8.15 58.84 8.15 C58.84 7.82 58.84 7.49 58.84 7.15 C57.19 7.15 55.54 7.15 53.84 7.15 Z M61.84 7.15 C61.84 7.48 61.84 7.81 61.84 8.15 C64.81 8.15 67.78 8.15 70.84 8.15 C70.84 7.82 70.84 7.49 70.84 7.15 C67.87 7.15 64.9 7.15 61.84 7.15 Z M47.84 10.15 C47.84 11.8 47.84 13.45 47.84 15.15 C48.17 15.15 48.5 15.15 48.84 15.15 C48.84 13.5 48.84 11.85 48.84 10.15 C48.51 10.15 48.18 10.15 47.84 10.15 Z M89.84 32.15 C89.84 32.81 89.84 33.47 89.84 34.15 C90.83 34.15 91.82 34.15 92.84 34.15 C92.51 33.49 92.18 32.83 91.84 32.15 C91.18 32.15 90.52 32.15 89.84 32.15 Z M112.84 53.15 C116.84 54.15 116.84 54.15 116.84 54.15 Z M125.84 53.15 C125.84 53.48 125.84 53.81 125.84 54.15 C127.49 54.15 129.14 54.15 130.84 54.15 C130.84 53.82 130.84 53.49 130.84 53.15 C129.19 53.15 127.54 53.15 125.84 53.15 Z M155.84 53.15 C156.5 53.81 157.16 54.47 157.84 55.15 C157.84 54.49 157.84 53.83 157.84 53.15 C157.18 53.15 156.52 53.15 155.84 53.15 Z " fill="#D5D7CE" transform="translate(441.15966796875,562.854736328125)"/>
<path d="M0 0 C1.94 -0.05 3.87 -0.09 5.81 -0.12 C6.89 -0.15 7.97 -0.17 9.08 -0.2 C12 0 12 0 15 2 C17.28 2.76 19.57 3.49 21.88 4.19 C29.44 6.6 36.13 10.02 43 14 C44.77 14.98 46.54 15.96 48.31 16.94 C49.54 17.62 50.77 18.31 52 19 C51.67 20.32 51.34 21.64 51 23 C50.34 23 49.68 23 49 23 C48.74 23.56 48.48 24.13 48.21 24.71 C46.89 27.2 45.35 29.36 43.69 31.62 C38.25 39.38 34.78 47.25 31.75 56.19 C31.49 56.95 31.23 57.71 30.97 58.49 C29.5 62.99 28.56 67.28 28 72 C27.79 72.72 27.59 73.44 27.38 74.19 C26.86 76 26.86 76 27.47 77.74 C28.12 80.52 28.13 83.06 28.13 85.9 C28.13 87.04 28.14 88.18 28.14 89.35 C28.13 90.53 28.13 91.72 28.12 92.94 C28.13 94.12 28.13 95.3 28.14 96.51 C28.14 97.65 28.13 98.79 28.13 99.96 C28.13 101 28.13 102.04 28.13 103.11 C28.01 105.85 27.62 108.34 27 111 C21.48 111.05 15.96 111.09 10.45 111.11 C8.57 111.12 6.69 111.13 4.81 111.15 C2.12 111.18 -0.58 111.19 -3.27 111.2 C-4.12 111.21 -4.96 111.22 -5.83 111.23 C-7.89 111.23 -9.94 111.12 -12 111 C-14.79 108.21 -14.66 105.85 -15 102 C-14.67 101.34 -14.34 100.68 -14 100 C-12.68 75.74 -17.07 52.83 -30.51 32.42 C-32 30 -32 30 -33 27 C-33.66 27 -34.32 27 -35 27 C-37.19 25.25 -37.19 25.25 -39 23 C-38.92 20.39 -38.23 19.29 -36.62 17.25 C-35 16 -35 16 -32 16 C-32 15.01 -32 14.02 -32 13 C-31.09 12.71 -30.19 12.42 -29.25 12.12 C-26.68 11.23 -24.41 10.25 -22 9 C-21.67 9 -21.34 9 -21 9 C-19.37 8.37 -17.74 7.72 -16.12 7.06 C-8.59 4 -8.59 4 -4 4 C-4 3.34 -4 2.68 -4 2 C-2.68 2 -1.36 2 0 2 C0 1.34 0 0.68 0 0 Z M25 78 C25 86.91 25 95.82 25 105 C25.33 105 25.66 105 26 105 C26 96.09 26 87.18 26 78 C25.67 78 25.34 78 25 78 Z " fill="#3A3A3A" transform="translate(444,717)"/>
<path d="M0 0 C0 0.33 0 0.66 0 1 C5.45 2.39 10.37 3.24 16 3 C16 3.66 16 4.32 16 5 C16.71 5.03 17.43 5.05 18.16 5.08 C24.53 5.46 28.83 6.18 34 10 C34.5 11.49 34.5 11.49 35 13 C35.99 13.5 35.99 13.5 37 14 C37.62 17.06 37.62 17.06 38 20 C38.66 20 39.32 20 40 20 C39.67 21.98 39.34 23.96 39 26 C39.66 26 40.32 26 41 26 C42.25 28.5 42.13 30.22 42.13 33.02 C42.13 34.02 42.14 35.02 42.14 36.06 C42.13 37.11 42.13 38.16 42.12 39.25 C42.13 40.29 42.13 41.33 42.14 42.39 C42.12 55.32 42.12 55.32 39 60 C39 60.99 39 61.98 39 63 C38.23 64.73 38.23 64.73 37.19 66.62 C35.7 69.48 34.52 72.24 33.56 75.31 C30.17 85.86 25.59 95.14 17.12 102.5 C9.13 106.34 1.42 104.72 -7 103 C-7 102.67 -7 102.34 -7 102 C-5.02 101.5 -5.02 101.5 -3 101 C-4.45 100.93 -4.45 100.93 -5.92 100.85 C-7.19 100.78 -8.45 100.7 -9.75 100.62 C-11 100.56 -12.26 100.49 -13.55 100.41 C-16.69 100.04 -18.3 99.46 -21 98 C-22.18 98.04 -23.35 98.08 -24.56 98.12 C-28 98 -28 98 -29.69 96.25 C-30.12 95.51 -30.55 94.76 -31 94 C-31.66 93.42 -32.32 92.85 -33 92.25 C-35.73 89.17 -36.75 85.87 -38 82 C-38.33 81.01 -38.66 80.02 -39 79 C-39.09 77.5 -39.13 76 -39.12 74.5 C-39.13 73.73 -39.13 72.95 -39.13 72.16 C-39 70 -39 70 -38 67 C-38.66 66.67 -39.32 66.34 -40 66 C-39.67 59.24 -39.01 53.25 -36.62 46.9 C-35.85 44.55 -35.93 42.45 -36 40 C-35.34 39.01 -34.68 38.02 -34 37 C-34 35.68 -34 34.36 -34 33 C-33.34 33 -32.68 33 -32 33 C-31.82 32.34 -31.64 31.67 -31.45 30.99 C-30.1 26.27 -28.85 22.07 -26 18 C-26.66 17.67 -27.32 17.34 -28 17 C-27.01 16.67 -26.02 16.34 -25 16 C-23.98 14.01 -22.98 12.01 -22 10 C-21.01 9.34 -20.02 8.68 -19 8 C-18.34 7.01 -17.68 6.02 -17 5 C-14.88 4.31 -14.88 4.31 -13 4 C-13 3.34 -13 2.68 -13 2 C-8.5 -0.25 -4.92 -0.17 0 0 Z M16 20 C14.62 21.97 13.28 23.97 12 26 C11.34 26.66 10.68 27.32 10 28 C9.14 30.06 9.14 30.06 8.44 32.38 C8.19 33.15 7.94 33.92 7.68 34.71 C6.8 37.66 6.07 40.52 5.62 43.56 C5 46 5 46 3.47 47.33 C1.43 49.64 1.69 51.16 1.81 54.19 C1.84 55.09 1.87 55.99 1.89 56.92 C1.93 57.61 1.96 58.29 2 59 C1.34 58.67 0.68 58.34 0 58 C0 67.57 0 77.14 0 87 C0.99 86.01 0.99 86.01 2 85 C2.33 87.31 2.66 89.62 3 92 C3.66 92 4.32 92 5 92 C5 92.66 5 93.32 5 94 C7.65 95.46 8.89 96 12 96 C12.5 95.01 12.5 95.01 13 94 C13.9 93.6 13.9 93.6 14.81 93.19 C17.7 91.62 19.16 89.7 21 87 C21 86.01 21 85.02 21 84 C21.66 84 22.32 84 23 84 C29.24 69.39 32.37 55.02 32.19 39.12 C32.19 38.02 32.19 36.92 32.19 35.79 C32.16 31.04 32.06 26.65 31 22 C30.34 22 29.68 22 29 22 C28.92 21.38 28.84 20.76 28.75 20.12 C28.19 17.85 28.19 17.85 26.12 16.75 C21.35 15.07 19.5 16.76 16 20 Z M39 28 C39 29.65 39 31.3 39 33 C39.66 31.68 40.32 30.36 41 29 C40.34 28.67 39.68 28.34 39 28 Z M40 33 C40 35.31 40 37.62 40 40 C40.33 40 40.66 40 41 40 C41 37.69 41 35.38 41 33 C40.67 33 40.34 33 40 33 Z M4 41 C5 45 5 45 5 45 Z M-38 55 C-38 56.98 -38 58.96 -38 61 C-37.67 61 -37.34 61 -37 61 C-37 59.02 -37 57.04 -37 55 C-37.33 55 -37.66 55 -38 55 Z " fill="#3B3B3B" transform="translate(517,741)"/>
<path d="M0 0 C2.1 0.05 2.1 0.05 4.56 -0.38 C10.47 0.27 16.21 4.42 20 9 C20 9.99 20 10.98 20 12 C20.66 12 21.32 12 22 12 C22.5 13.49 22.5 13.49 23 15 C23.99 16.49 23.99 16.49 25 18 C25.63 19.27 26.26 20.54 26.88 21.81 C27.99 24.08 27.99 24.08 29.56 26.38 C31.17 29.3 31.57 31.71 32 35 C32.33 35.99 32.66 36.98 33 38 C34.91 49.83 35.18 61.53 35.01 73.49 C35 74.57 34.99 75.64 34.97 76.75 C34.95 77.71 34.94 78.68 34.92 79.67 C34.84 82.03 34.84 82.03 36 84 C35.01 84.66 34.02 85.32 33 86 C32.73 87.09 32.46 88.19 32.19 89.31 C30.67 94.02 28.9 95.12 25 98 C25 98.33 25 98.66 25 99 C24.32 99.05 23.65 99.1 22.95 99.15 C21.62 99.26 21.62 99.26 20.25 99.38 C18.93 99.48 18.93 99.48 17.58 99.59 C14.98 99.87 14.98 99.87 12.8 101.1 C12.2 101.4 11.61 101.69 11 102 C10.01 101.5 10.01 101.5 9 101 C8.3 101.47 7.6 101.95 6.88 102.44 C3.72 104.15 1.73 104.13 -1.8 103.97 C-5.64 104.02 -9.29 105.04 -13 106 C-13.33 105.01 -13.66 104.02 -14 103 C-15.98 103.5 -15.98 103.5 -18 104 C-18 103.34 -18 102.68 -18 102 C-18.56 101.79 -19.11 101.59 -19.69 101.38 C-22.97 99.42 -24.71 97.06 -27 94 C-27 93.34 -27 92.68 -27 92 C-27.58 91.49 -28.15 90.99 -28.75 90.46 C-31.97 86.94 -33.36 82.99 -35.06 78.56 C-35.41 77.66 -35.76 76.75 -36.13 75.82 C-41.56 61.53 -42.63 48.18 -43 33 C-43.33 33 -43.66 33 -44 33 C-44 30.69 -44 28.38 -44 26 C-43.34 26 -42.68 26 -42 26 C-40.96 21.99 -40 18.16 -40 14 C-38.62 12.31 -38.62 12.31 -37 11 C-36.34 11 -35.68 11 -35 11 C-34.57 10.55 -34.13 10.09 -33.69 9.62 C-30.53 6.58 -27.05 5.95 -22.81 5.5 C-18.99 5.39 -18.99 5.39 -17 3 C-13.88 3.38 -13.88 3.38 -11 4 C-11 3.34 -11 2.68 -11 2 C-7.36 -0.33 -4.24 -0.16 0 0 Z M-29 16 C-34.86 23.04 -35.52 27.37 -34.82 36.3 C-34.6 38.58 -34.34 40.85 -34.06 43.12 C-33.98 43.88 -33.89 44.64 -33.8 45.43 C-32.97 52.56 -31.93 59.6 -30.46 66.63 C-30.09 68.55 -29.81 70.5 -29.56 72.44 C-29.25 75.01 -29.25 75.01 -27.61 76.33 C-25.56 78.46 -24.83 80.57 -23.75 83.31 C-21.45 88.52 -19 92.15 -14 95 C-10.74 95.95 -10.74 95.95 -8 96 C-4.53 91.98 -4.53 91.98 -3 87 C-3.66 87 -4.32 87 -5 87 C-4.01 86.01 -4.01 86.01 -3 85 C-2.58 82.9 -2.58 82.9 -2.44 80.56 C-2.21 77.76 -1.9 75.7 -1 73 C-1.32 70.97 -1.32 70.97 -1.94 68.81 C-3.01 64.41 -3.16 60.52 -3 56 C-3.66 56 -4.32 56 -5 56 C-4.92 54.72 -4.83 53.44 -4.75 52.12 C-4.78 46.4 -6.57 42.11 -9 37 C-9.83 35.23 -9.83 35.23 -10.68 33.43 C-13.38 27.85 -16.02 22.79 -20 18 C-20 17.67 -20 17.34 -20 17 C-21.11 17.02 -22.23 17.04 -23.38 17.06 C-27 17 -27 17 -29 16 Z M-37 35 C-36 37 -36 37 -36 37 Z M-36 37 C-35 40 -35 40 -35 40 Z M-36 41 C-36 42.65 -36 44.3 -36 46 C-35.67 46 -35.34 46 -35 46 C-35 44.35 -35 42.7 -35 41 C-35.33 41 -35.66 41 -36 41 Z M-35 47 C-34 49 -34 49 -34 49 Z " fill="#3A3A3A" transform="translate(386,741)"/>
<path d="M0 0 C2.03 -0.01 4.06 -0.04 6.08 -0.07 C7.37 -0.08 8.65 -0.08 9.97 -0.09 C11.74 -0.1 11.74 -0.1 13.54 -0.12 C17.08 0.28 18.91 1.1 21.73 3.24 C25.98 9.62 25.98 9.62 25.94 13.25 C25.93 14.06 25.92 14.87 25.92 15.71 C25.9 16.59 25.89 17.48 25.87 18.39 C25.86 19.33 25.85 20.27 25.84 21.23 C25.81 24.33 25.76 27.43 25.71 30.53 C25.68 32.68 25.66 34.83 25.63 36.98 C25.57 42.63 25.49 48.29 25.41 53.95 C25.33 59.72 25.26 65.49 25.19 71.26 C25.05 82.59 24.89 93.91 24.73 105.24 C23.81 105.64 23.81 105.64 22.86 106.05 C20.43 107.2 20.43 107.2 18.73 110.24 C11.99 111.39 5.19 111.48 -1.64 111.55 C-3.12 111.6 -3.12 111.6 -4.62 111.64 C-6.04 111.65 -6.04 111.65 -7.48 111.67 C-8.33 111.68 -9.17 111.7 -10.05 111.71 C-12.27 111.24 -12.27 111.24 -14 109.4 C-16.58 104.99 -16.4 100.89 -16.36 95.93 C-16.36 95.09 -16.36 94.24 -16.36 93.36 C-16.36 91.52 -16.35 89.68 -16.34 87.84 C-16.33 84.92 -16.32 82.01 -16.32 79.09 C-16.3 71.84 -16.28 64.59 -16.26 57.34 C-16.24 51.22 -16.22 45.1 -16.21 38.98 C-16.2 36.11 -16.19 33.24 -16.18 30.37 C-16.18 28.6 -16.17 26.83 -16.17 25.07 C-16.16 24.27 -16.16 23.48 -16.15 22.66 C-16.15 18.08 -16.51 13.76 -17.27 9.24 C-16.61 9.24 -15.95 9.24 -15.27 9.24 C-15.14 7.94 -15.02 6.64 -14.89 5.3 C-14.68 3.09 -14.68 3.09 -14.27 1.24 C-10.07 -0.86 -4.62 0.01 0 0 Z " fill="#373737" transform="translate(584.266357421875,619.759765625)"/>
<path d="M0 0 C0.66 0.01 1.31 0.01 1.99 0.02 C4.07 0.04 6.15 0.09 8.23 0.14 C9.64 0.16 11.06 0.18 12.48 0.2 C15.94 0.24 19.39 0.31 22.85 0.39 C24.53 3.33 25.1 5.43 25.11 8.8 C25.11 9.68 25.12 10.55 25.12 11.45 C25.12 12.41 25.11 13.36 25.11 14.34 C25.11 15.35 25.12 16.36 25.12 17.41 C25.13 20.75 25.12 24.09 25.12 27.43 C25.12 29.74 25.12 32.06 25.12 34.38 C25.13 39.24 25.12 44.1 25.11 48.96 C25.1 55.2 25.11 61.43 25.12 67.67 C25.13 72.46 25.12 77.25 25.12 82.03 C25.12 84.33 25.12 86.64 25.12 88.94 C25.13 92.15 25.12 95.36 25.11 98.57 C25.11 99.52 25.12 100.48 25.12 101.46 C25.11 102.77 25.11 102.77 25.11 104.11 C25.1 104.87 25.1 105.63 25.1 106.41 C24.85 108.39 24.85 108.39 22.85 111.39 C20.84 111.62 20.84 111.62 18.39 111.43 C17.06 111.34 17.06 111.34 15.71 111.25 C14.79 111.17 13.87 111.1 12.91 111.02 C11.09 110.88 9.27 110.74 7.45 110.62 C6.24 110.52 6.24 110.52 5 110.42 C2.66 110.27 2.66 110.27 -0.15 111.39 C-0.81 111.06 -1.47 110.73 -2.15 110.39 C-3.82 110.67 -5.49 111 -7.15 111.39 C-7.81 110.4 -8.47 109.41 -9.15 108.39 C-10.11 108.21 -10.11 108.21 -11.09 108.02 C-13.15 107.39 -13.15 107.39 -14.84 105.27 C-18.2 97.9 -17.29 89.36 -17.28 81.45 C-17.28 80.07 -17.28 78.7 -17.28 77.32 C-17.29 74.44 -17.28 71.56 -17.28 68.67 C-17.27 65.04 -17.28 61.41 -17.28 57.78 C-17.3 44.93 -17.3 32.06 -16.83 19.21 C-16.81 18.39 -16.78 17.56 -16.76 16.71 C-16.54 11.95 -15.89 8.44 -13.15 4.39 C-8.77 0.64 -5.7 -0.1 0 0 Z M22.85 73.39 C23.85 75.39 23.85 75.39 23.85 75.39 Z M22.85 97.39 C23.85 99.39 23.85 99.39 23.85 99.39 Z M22.85 101.39 C23.85 105.39 23.85 105.39 23.85 105.39 Z M22.85 106.39 C23.85 108.39 23.85 108.39 23.85 108.39 Z " fill="#383838" transform="translate(308.1484375,619.609375)"/>
<path d="M0 0 C1.03 0 2.06 0.01 3.12 0.01 C4.21 0.02 5.29 0.03 6.4 0.04 C8.03 0.04 8.03 0.04 9.7 0.05 C12.39 0.06 15.08 0.08 17.77 0.1 C18.1 0.76 18.43 1.42 18.77 2.1 C16.79 2.1 14.81 2.1 12.77 2.1 C13.1 2.76 13.43 3.42 13.77 4.1 C13.9 6.93 13.96 9.74 13.98 12.58 C13.98 13.42 13.99 14.27 13.99 15.14 C14 16.94 14.01 18.73 14.01 20.53 C14.02 23.26 14.05 25.99 14.09 28.72 C14.09 30.46 14.1 32.21 14.1 33.95 C14.11 34.76 14.13 35.57 14.14 36.41 C14.12 41.72 13.31 45.4 10.77 50.1 C5.5 54.34 0.68 56.35 -6.07 56.34 C-7.82 56.34 -7.82 56.34 -9.61 56.35 C-10.88 56.34 -12.15 56.33 -13.46 56.32 C-14.82 56.32 -16.18 56.32 -17.54 56.33 C-21.23 56.33 -24.91 56.31 -28.6 56.3 C-32.45 56.29 -36.31 56.29 -40.16 56.28 C-47.46 56.28 -54.75 56.26 -62.05 56.24 C-70.36 56.22 -78.66 56.21 -86.97 56.2 C-104.06 56.18 -121.14 56.14 -138.23 56.1 C-141.23 49.35 -141.23 49.35 -141.23 47.1 C-140.57 47.1 -139.91 47.1 -139.23 47.1 C-139.23 46.44 -139.23 45.78 -139.23 45.1 C-136.71 43.84 -134.81 43.89 -132 43.78 C-130.45 43.72 -130.45 43.72 -128.88 43.65 C-127.79 43.61 -126.71 43.58 -125.6 43.54 C-124.51 43.49 -123.43 43.45 -122.3 43.4 C-119.61 43.3 -116.92 43.2 -114.23 43.1 C-114.23 42.77 -114.23 42.44 -114.23 42.1 C-111.6 42.07 -108.98 42.05 -106.35 42.04 C-105.61 42.03 -104.86 42.02 -104.09 42.01 C-98.45 41.98 -98.45 41.98 -96.23 43.1 C-92.77 43.16 -89.33 43.12 -85.88 43.06 C-80.89 43.01 -76.16 43.38 -71.23 44.1 C-71.23 43.44 -71.23 42.78 -71.23 42.1 C-67.6 42.1 -63.97 42.1 -60.23 42.1 C-60.23 42.43 -60.23 42.76 -60.23 43.1 C-42.74 43.1 -25.25 43.1 -7.23 43.1 C-7.23 40.79 -7.23 38.48 -7.23 36.1 C-6.9 35.77 -6.57 35.44 -6.23 35.1 C-6.15 32.83 -6.14 30.56 -6.16 28.29 C-6.17 27.61 -6.17 26.93 -6.18 26.22 C-6.19 23.29 -6.22 20.37 -6.25 17.44 C-6.27 15.31 -6.28 13.17 -6.29 11.04 C-6.3 9.76 -6.31 8.48 -6.32 7.15 C-6.23 4.1 -6.23 4.1 -5.23 2.1 C-6.22 1.6 -6.22 1.6 -7.23 1.1 C-4.67 -0.18 -2.86 -0.02 0 0 Z " fill="#D6D8CF" transform="translate(437.2265625,562.90234375)"/>
<path d="M0 0 C2 0.46 4 0.9 6 1.31 C10.94 2.53 14.11 3.56 17 8 C17.41 11.25 17.17 13.45 16.19 16.56 C16.09 17.77 16.09 17.77 16 19 C16.82 19.8 17.65 20.61 18.5 21.44 C19.32 22.28 20.15 23.13 21 24 C20.94 27.25 20.94 27.25 20 30 C19.01 30.5 19.01 30.5 18 31 C18.99 31 19.98 31 21 31 C20.62 32.94 20.62 32.94 20 35 C19.01 35.5 19.01 35.5 18 36 C17.67 35.67 17.34 35.34 17 35 C17 35.33 17 35.66 17 36 C14.69 36 12.38 36 10 36 C11.65 36.33 13.3 36.66 15 37 C15 37.33 15 37.66 15 38 C-1.83 38 -18.66 38 -36 38 C-37.5 35 -37.09 32.21 -37.06 28.88 C-37.05 27.59 -37.04 26.31 -37.04 24.99 C-37.02 24 -37.01 23.02 -37 22 C-37.66 21.67 -38.32 21.34 -39 21 C-38.91 18.06 -38.81 15.13 -38.69 12.19 C-38.66 11.35 -38.64 10.52 -38.62 9.66 C-38.57 8.46 -38.57 8.46 -38.51 7.23 C-38.47 6.12 -38.47 6.12 -38.43 4.99 C-37.87 2.4 -37.18 1.51 -35 0 C-32.55 -0.31 -32.55 -0.31 -29.67 -0.22 C-28.1 -0.19 -28.1 -0.19 -26.5 -0.17 C-25.41 -0.13 -24.31 -0.1 -23.19 -0.06 C-15.68 0.15 -6.44 -3.11 0 0 Z M-25.88 9.88 C-28.49 13.72 -28.21 15.41 -27.39 19.82 C-27 22 -27 22 -27 26 C-26.67 27.32 -26.34 28.64 -26 30 C-14.45 30 -2.9 30 9 30 C8.38 26.1 8.38 26.1 6.32 24.27 C3.34 22.64 1.3 22.66 -2.08 22.71 C-3.24 22.72 -4.4 22.73 -5.59 22.74 C-6.8 22.76 -8.01 22.79 -9.25 22.81 C-10.47 22.83 -11.69 22.84 -12.95 22.85 C-15.97 22.89 -18.98 22.94 -22 23 C-21.34 22.34 -20.68 21.68 -20 21 C-21.32 21 -22.64 21 -24 21 C-23.67 19.35 -23.34 17.7 -23 16 C-16.86 14.71 -10.87 14.97 -4.64 15.13 C-3.81 15.14 -2.99 15.15 -2.14 15.16 C-1.02 15.19 -1.02 15.19 0.12 15.21 C2.25 15.17 2.25 15.17 4 13 C4 12.01 4 11.02 4 10 C3.36 9.97 2.72 9.95 2.06 9.92 C-0.86 9.81 -3.77 9.69 -6.69 9.56 C-8.2 9.5 -8.2 9.5 -9.74 9.44 C-10.72 9.4 -11.69 9.36 -12.7 9.32 C-13.59 9.28 -14.49 9.24 -15.41 9.21 C-18 9 -18 9 -20.65 8.36 C-23.23 7.7 -23.23 7.7 -25.88 9.88 Z M1 6 C1 6.66 1 7.32 1 8 C-0.65 8 -2.3 8 -4 8 C-4 8.33 -4 8.66 -4 9 C-2.02 9 -0.04 9 2 9 C1.67 8.01 1.34 7.02 1 6 Z M15 8 C14.67 8.66 14.34 9.32 14 10 C14.66 10 15.32 10 16 10 C15.67 9.34 15.34 8.68 15 8 Z M14 11 C14.66 11.66 15.32 12.32 16 13 C16 12.34 16 11.68 16 11 C15.34 11 14.68 11 14 11 Z M0 20 C0.66 20.66 1.32 21.32 2 22 C2 21.34 2 20.68 2 20 C1.34 20 0.68 20 0 20 Z M-19 21 C-19 21.33 -19 21.66 -19 22 C-17.35 22 -15.7 22 -14 22 C-14 21.67 -14 21.34 -14 21 C-15.65 21 -17.3 21 -19 21 Z M-33 36 C-33 36.33 -33 36.66 -33 37 C-29.04 37 -25.08 37 -21 37 C-21 36.67 -21 36.34 -21 36 C-24.96 36 -28.92 36 -33 36 Z M-6 36 C-6 36.33 -6 36.66 -6 37 C-4.35 37 -2.7 37 -1 37 C-1 36.67 -1 36.34 -1 36 C-2.65 36 -4.3 36 -6 36 Z " fill="#B5B7AF" transform="translate(335,564)"/>
<path d="M0 0 C0.74 -0 1.47 -0 2.23 -0 C3.79 -0 5.35 -0 6.9 0 C9.27 0.01 11.64 0 14.01 -0 C15.53 -0 17.05 -0 18.56 0 C19.27 -0 19.97 -0 20.69 -0.01 C24.73 0.01 28.52 0.36 32.48 1.13 C32.62 1.9 32.77 2.66 32.92 3.45 C33.44 6.21 33.44 6.21 34.48 9.13 C34.58 11.25 34.61 13.36 34.61 15.48 C34.62 17.35 34.62 17.35 34.62 19.25 C34.61 20.55 34.61 21.85 34.61 23.2 C34.61 25.15 34.61 25.15 34.62 27.15 C34.62 28.39 34.61 29.64 34.61 30.92 C34.61 32.06 34.61 33.2 34.61 34.38 C34.48 37.13 34.48 37.13 33.48 39.13 C26.3 40.41 26.3 40.41 22.48 39.13 C21.48 37.13 21.48 37.13 21.48 31.13 C9.93 31.13 -1.62 31.13 -13.52 31.13 C-13.52 33.44 -13.52 35.75 -13.52 38.13 C-14.52 39.13 -14.52 39.13 -17.02 39.23 C-18.03 39.22 -19.04 39.21 -20.08 39.2 C-21.09 39.19 -22.11 39.18 -23.15 39.17 C-24.32 39.15 -24.32 39.15 -25.52 39.13 C-25.69 35.36 -25.85 31.59 -26.02 27.82 C-26.09 26.21 -26.09 26.21 -26.16 24.57 C-26.21 23.54 -26.25 22.52 -26.3 21.46 C-26.34 20.51 -26.38 19.56 -26.43 18.58 C-26.63 13.27 -26.63 13.27 -24.69 10.84 C-23.89 10.03 -23.09 9.22 -22.27 8.38 C-21.48 7.56 -20.69 6.74 -19.88 5.9 C-17.52 4.13 -17.52 4.13 -15.43 4.43 C-14.8 4.66 -14.17 4.89 -13.52 5.13 C-10.32 4.26 -10.32 4.26 -7.52 3.13 C-8.51 2.47 -9.5 1.81 -10.52 1.13 C-6.95 -0.06 -3.71 -0.01 0 0 Z M30.48 5.13 C31.48 8.13 31.48 8.13 31.48 8.13 Z M10.48 7.13 C14.48 8.13 14.48 8.13 14.48 8.13 Z M-12.14 15.63 C-13.84 18.24 -13.84 18.24 -13.52 22.13 C-6.36 22.98 0.71 23.32 7.92 23.32 C8.9 23.33 9.88 23.34 10.88 23.36 C11.82 23.36 12.76 23.36 13.73 23.36 C14.57 23.37 15.41 23.37 16.28 23.38 C18.77 23.27 18.77 23.27 21.48 21.13 C21.88 18.5 21.88 18.5 21.73 15.57 C21.72 14.58 21.7 13.59 21.68 12.57 C21.75 10.19 21.75 10.19 20.48 9.13 C9.22 8.02 -3.49 7.39 -12.14 15.63 Z M32.48 9.13 C32.48 15.73 32.48 22.33 32.48 29.13 C32.81 29.13 33.14 29.13 33.48 29.13 C33.48 22.53 33.48 15.93 33.48 9.13 C33.15 9.13 32.82 9.13 32.48 9.13 Z M-9.52 28.13 C-9.52 28.46 -9.52 28.79 -9.52 29.13 C-7.54 29.13 -5.56 29.13 -3.52 29.13 C-3.52 28.8 -3.52 28.47 -3.52 28.13 C-5.5 28.13 -7.48 28.13 -9.52 28.13 Z M5.48 29.13 C5.48 29.46 5.48 29.79 5.48 30.13 C9.44 30.13 13.4 30.13 17.48 30.13 C17.48 29.8 17.48 29.47 17.48 29.13 C13.52 29.13 9.56 29.13 5.48 29.13 Z M-17.52 35.13 C-17.85 36.12 -18.18 37.11 -18.52 38.13 C-17.2 37.8 -15.88 37.47 -14.52 37.13 C-14.85 36.47 -15.18 35.81 -15.52 35.13 C-16.18 35.13 -16.84 35.13 -17.52 35.13 Z " fill="#C9CBC2" transform="translate(391.51953125,562.8671875)"/>
<path d="M0 0 C0 0.99 0 1.98 0 3 C2.28 4.83 2.28 4.83 5.19 6.5 C6.15 7.09 7.11 7.68 8.11 8.28 C9.06 8.85 10.02 9.42 11 10 C11.94 10.57 12.89 11.13 13.86 11.72 C14.57 12.14 15.27 12.56 16 13 C16.21 12.44 16.41 11.89 16.62 11.31 C18.53 8.11 21.08 6.28 24 4 C25.05 3.07 25.05 3.07 26.12 2.12 C28 1 28 1 30.25 1.31 C30.83 1.54 31.4 1.77 32 2 C32 1.34 32 0.68 32 0 C33.79 -0.05 35.58 -0.09 37.38 -0.12 C38.37 -0.15 39.37 -0.17 40.4 -0.2 C43 0 43 0 45 2 C44.67 2.99 44.34 3.98 44 5 C43.34 5 42.68 5 42 5 C41.67 5.99 41.34 6.98 41 8 C36 12.09 36 12.09 32.12 11.75 C31.07 11.38 31.07 11.38 30 11 C30.5 12.49 30.5 12.49 31 14 C29.68 14.99 28.36 15.98 27 17 C26.01 16.34 25.02 15.68 24 15 C24.61 18.26 25.21 20.4 27.91 22.44 C29.36 23.3 30.83 24.13 32.32 24.92 C33.15 25.46 33.15 25.46 34 26 C34 26.66 34 27.32 34 28 C34.7 28.23 35.4 28.45 36.12 28.69 C39.69 30.32 42.07 32.41 45 35 C44.5 35.99 44.5 35.99 44 37 C43.01 36.5 43.01 36.5 42 36 C41.5 36.99 41.5 36.99 41 38 C39.25 38.08 37.5 38.14 35.75 38.19 C34.78 38.22 33.8 38.26 32.8 38.29 C29.59 37.96 28.25 37.29 26 35 C26 34.01 26 33.02 26 32 C25.26 31.9 24.51 31.79 23.75 31.69 C20.78 30.95 19.41 29.81 17 28 C14.35 27.29 14.35 27.29 12 27 C12 27.66 12 28.32 12 29 C5.64 34.86 -0.01 38.63 -8.81 38.56 C-10.88 38.42 -12.94 38.25 -15 38 C-15.5 36.51 -15.5 36.51 -16 35 C-13 32 -10 29 -7 26 C-7 26.66 -7 27.32 -7 28 C-6.26 27.2 -5.51 26.39 -4.75 25.56 C-2.17 23.16 -1.33 22.44 2 22 C2.99 21.67 3.98 21.34 5 21 C2.23 17.2 -0.41 14.85 -4.44 12.44 C-14.5 6.38 -14.5 6.38 -15.81 2.75 C-15.87 2.17 -15.94 1.6 -16 1 C-14.27 0.63 -12.54 0.28 -10.81 -0.06 C-9.37 -0.36 -9.37 -0.36 -7.89 -0.66 C-4.96 -1 -2.84 -0.74 0 0 Z M-3 11 C-2 13 -2 13 -2 13 Z " fill="#C6C8C0" transform="translate(559,564)"/>
<path d="M0 0 C1.01 0 2.01 0 3.05 0.01 C5.17 0.02 7.3 0.04 9.42 0.07 C12.68 0.12 15.93 0.13 19.18 0.14 C21.24 0.15 23.31 0.17 25.38 0.19 C26.83 0.2 26.83 0.2 28.32 0.2 C29.23 0.22 30.14 0.24 31.07 0.25 C32.27 0.27 32.27 0.27 33.49 0.28 C35.99 0.6 37.59 1.16 39.69 2.56 C40.5 5.62 40.5 5.62 40.69 8.56 C39.16 10.09 37.76 9.72 35.63 9.76 C34.77 9.78 33.91 9.8 33.02 9.82 C31.62 9.85 31.62 9.85 30.18 9.88 C29.23 9.9 28.28 9.92 27.3 9.94 C24.24 10 21.18 10.06 18.12 10.12 C16.06 10.16 13.99 10.21 11.92 10.25 C6.85 10.36 1.77 10.46 -3.31 10.56 C-3.36 12.56 -3.35 14.56 -3.31 16.56 C-2.98 16.89 -2.65 17.22 -2.31 17.56 C-2.24 19.08 -2.23 20.6 -2.25 22.12 C-2.26 22.95 -2.27 23.77 -2.28 24.62 C-2.29 25.26 -2.3 25.9 -2.31 26.56 C-2.97 26.56 -3.63 26.56 -4.31 26.56 C-4.64 27.55 -4.97 28.54 -5.31 29.56 C-2.52 30.34 -0 30.7 2.89 30.75 C3.71 30.76 4.52 30.78 5.37 30.8 C6.24 30.81 7.11 30.83 8.01 30.84 C8.91 30.86 9.82 30.88 10.75 30.9 C14.6 30.97 18.46 31.04 22.31 31.11 C25.13 31.16 27.95 31.22 30.76 31.28 C32.08 31.3 32.08 31.3 33.43 31.32 C39.57 31.45 39.57 31.45 40.69 32.56 C40.81 35.56 40.81 35.56 40.69 38.56 C39.11 40.13 37.53 39.7 35.34 39.72 C34.41 39.73 33.49 39.74 32.54 39.75 C31.53 39.75 30.52 39.76 29.48 39.76 C28.45 39.77 27.42 39.77 26.36 39.78 C24.18 39.79 21.99 39.79 19.81 39.8 C16.47 39.81 13.13 39.84 9.79 39.87 C7.66 39.88 5.54 39.88 3.42 39.89 C1.92 39.91 1.92 39.91 0.39 39.92 C-8.4 39.9 -8.4 39.9 -12.31 36.56 C-15.68 31.51 -14.68 25.61 -14.69 19.68 C-14.71 18.4 -14.74 17.12 -14.76 15.8 C-14.77 14.57 -14.77 13.34 -14.77 12.07 C-14.78 10.94 -14.79 9.81 -14.8 8.65 C-13.38 -0.36 -7.7 -0.15 0 0 Z M37.69 5.56 C38.35 6.22 39.01 6.88 39.69 7.56 C39.69 6.9 39.69 6.24 39.69 5.56 C39.03 5.56 38.37 5.56 37.69 5.56 Z M0.69 7.56 C0.69 7.89 0.69 8.22 0.69 8.56 C2.34 8.56 3.99 8.56 5.69 8.56 C5.69 8.23 5.69 7.9 5.69 7.56 C4.04 7.56 2.39 7.56 0.69 7.56 Z M8.69 7.56 C8.69 7.89 8.69 8.22 8.69 8.56 C11.66 8.56 14.63 8.56 17.69 8.56 C17.69 8.23 17.69 7.9 17.69 7.56 C14.72 7.56 11.75 7.56 8.69 7.56 Z M-5.31 10.56 C-5.31 12.21 -5.31 13.86 -5.31 15.56 C-4.98 15.56 -4.65 15.56 -4.31 15.56 C-4.31 13.91 -4.31 12.26 -4.31 10.56 C-4.64 10.56 -4.97 10.56 -5.31 10.56 Z M36.69 32.56 C36.69 33.22 36.69 33.88 36.69 34.56 C37.68 34.56 38.67 34.56 39.69 34.56 C39.36 33.9 39.03 33.24 38.69 32.56 C38.03 32.56 37.37 32.56 36.69 32.56 Z " fill="#D0D2CA" transform="translate(494.3125,562.44140625)"/>
<path d="M0 0 C0.66 0.33 1.32 0.66 2 1 C1.67 1.99 1.34 2.98 1 4 C-0.98 4 -2.96 4 -5 4 C-5 4.66 -5 5.32 -5 6 C-3.02 6 -1.04 6 1 6 C1 6.33 1 6.66 1 7 C-3 7.69 -6.09 8.2 -10 7 C-10.33 7.33 -10.66 7.66 -11 8 C-7.61 8.9 -4.48 9.04 -1 9 C2.48 8.96 5.61 9.1 9 10 C9 10.33 9 10.66 9 11 C5.94 11.03 2.88 11.05 -0.19 11.06 C-1.48 11.08 -1.48 11.08 -2.81 11.09 C-7.05 11.1 -10.83 10.84 -15 10 C-17.58 11.24 -17.58 11.24 -19 14 C-19.03 16.34 -18.75 18.48 -18.36 20.78 C-17.81 24.17 -18 27.57 -18 31 C-8.1 31 1.8 31 12 31 C10 33 10 33 6.38 33.12 C5.26 33.08 4.15 33.04 3 33 C3 33.66 3 34.32 3 35 C4.98 35 6.96 35 9 35 C9 35.33 9 35.66 9 36 C2.85 36.1 2.85 36.1 1 36 C0.5 35.5 0.5 35.5 0 35 C-1.89 35 -3.79 35.06 -5.68 35.16 C-6.84 35.21 -7.99 35.26 -9.18 35.32 C-11.64 35.44 -14.09 35.56 -16.54 35.68 C-17.7 35.74 -18.86 35.79 -20.05 35.84 C-21.12 35.9 -22.19 35.95 -23.29 36.01 C-26 36 -26 36 -29 35 C-29 31.04 -29 27.08 -29 23 C-29.66 22.67 -30.32 22.34 -31 22 C-30.91 19.06 -30.81 16.13 -30.69 13.19 C-30.66 12.35 -30.64 11.52 -30.62 10.66 C-30.57 9.46 -30.57 9.46 -30.51 8.23 C-30.47 7.12 -30.47 7.12 -30.43 5.99 C-29.87 3.39 -29.18 2.51 -27 1 C-24.5 0.68 -24.5 0.68 -21.56 0.74 C-20.5 0.76 -19.44 0.77 -18.35 0.79 C-16.69 0.83 -16.69 0.83 -15 0.88 C-12.81 0.92 -10.63 0.96 -8.44 0.99 C-6.98 1.03 -6.98 1.03 -5.5 1.07 C-2.87 1.12 -2.87 1.12 0 0 Z " fill="#CCCEC6" transform="translate(327,563)"/>
<path d="M0 0 C0.33 0 0.66 0 1 0 C1.13 6.48 1.13 6.48 0.47 9.16 C-0.21 13.25 0.15 17.19 0.44 21.31 C0.49 22.15 0.54 22.98 0.6 23.85 C0.72 25.9 0.86 27.95 1 30 C0.98 28.95 0.95 27.9 0.93 26.82 C0.91 25.45 0.89 24.07 0.88 22.69 C0.86 22 0.84 21.31 0.82 20.6 C0.79 16.83 0.86 15.22 3 12 C3.33 14.31 3.66 16.62 4 19 C4.66 18.01 5.32 17.02 6 16 C6.13 17.22 6.27 18.44 6.4 19.69 C6.58 21.32 6.76 22.94 6.94 24.56 C7.02 25.36 7.11 26.16 7.2 26.99 C7.91 33.42 8.71 39.83 9.94 46.19 C10.09 47.01 10.24 47.82 10.4 48.67 C11.01 51.04 11.84 52.84 13 55 C14.05 57.18 15.09 59.37 16.12 61.56 C16.66 62.7 17.2 63.83 17.76 65 C19 68 19 68 19 71 C20.32 71.66 21.64 72.32 23 73 C23 73.66 23 74.32 23 75 C24.49 75.5 24.49 75.5 26 76 C23 77 23 77 21 77 C21.31 77.74 21.62 78.49 21.94 79.25 C22.81 81.51 23.48 83.65 24 86 C23.34 86 22.68 86 22 86 C22 85.34 22 84.68 22 84 C21.44 83.79 20.89 83.59 20.31 83.38 C17.03 81.42 15.29 79.06 13 76 C13 75.34 13 74.68 13 74 C12.42 73.49 11.85 72.99 11.25 72.46 C8.03 68.94 6.64 64.99 4.94 60.56 C4.59 59.66 4.24 58.75 3.87 57.82 C-1.56 43.53 -2.63 30.18 -3 15 C-3.33 15 -3.66 15 -4 15 C-4 12.69 -4 10.38 -4 8 C-3.34 8 -2.68 8 -2 8 C-1.78 7.13 -1.78 7.13 -1.56 6.25 C-1.04 4.17 -0.52 2.08 0 0 Z M4 23 C4 24.65 4 26.3 4 28 C4.33 28 4.66 28 5 28 C5 26.35 5 24.7 5 23 C4.67 23 4.34 23 4 23 Z M5 29 C6 31 6 31 6 31 Z " fill="#464745" transform="translate(346,759)"/>
<path d="M0 0 C4.48 -0.07 8.97 -0.13 13.45 -0.16 C14.98 -0.18 16.5 -0.2 18.03 -0.23 C20.22 -0.26 22.41 -0.28 24.61 -0.29 C25.93 -0.31 27.25 -0.32 28.61 -0.34 C32.13 0.01 33.49 0.58 36 3 C35.12 7.88 35.12 7.88 34 9 C31.55 9.02 29.13 8.97 26.68 8.88 C25.59 8.84 25.59 8.84 24.47 8.81 C22.12 8.73 19.78 8.65 17.44 8.56 C15.85 8.51 14.27 8.46 12.68 8.4 C8.79 8.27 4.89 8.14 1 8 C-0.43 5.65 -1.09 4.52 -0.62 1.75 C-0.42 1.17 -0.21 0.6 0 0 Z " fill="#CED0C7" transform="translate(495,579)"/>
<path d="M0 0 C2.54 2.54 2.24 4.12 2.25 7.58 C2.24 8.36 2.23 9.14 2.23 9.94 C2.23 10.76 2.23 11.58 2.23 12.42 C2.23 15.14 2.21 17.85 2.2 20.57 C2.19 22.45 2.19 24.33 2.19 26.21 C2.18 31.17 2.16 36.12 2.14 41.08 C2.12 46.13 2.11 51.18 2.1 56.24 C2.08 66.16 2.04 76.08 2 86 C-1.2 82.8 -1.12 79.91 -1.14 75.56 C-1.13 74.46 -1.13 74.46 -1.13 73.33 C-1.13 72.55 -1.13 71.77 -1.13 70.97 C-1.14 68.39 -1.14 65.82 -1.13 63.24 C-1.13 61.46 -1.13 59.67 -1.14 57.88 C-1.14 54.14 -1.14 50.39 -1.13 46.65 C-1.12 41.84 -1.13 37.03 -1.13 32.22 C-1.14 28.53 -1.14 24.84 -1.13 21.15 C-1.13 19.38 -1.13 17.6 -1.14 15.83 C-1.14 13.36 -1.13 10.88 -1.13 8.41 C-1.13 7.67 -1.13 6.93 -1.14 6.17 C-1.11 1.11 -1.11 1.11 0 0 Z " fill="#CFD1C9" transform="translate(569,643)"/>
<path d="M0 0 C0.66 0 1.32 0 2 0 C2.03 0.81 2.05 1.63 2.08 2.46 C2.19 6.12 2.31 9.78 2.44 13.44 C2.48 14.72 2.52 16 2.56 17.31 C2.6 18.53 2.64 19.74 2.68 21 C2.74 22.68 2.74 22.68 2.79 24.41 C2.71 26.93 2.71 26.93 4 28 C4 29.65 4 31.3 4 33 C-8.87 33 -21.74 33 -35 33 C-34.01 32.5 -34.01 32.5 -33 32 C-33 31.01 -33 30.02 -33 29 C-22.11 28.67 -11.22 28.34 0 28 C0 18.76 0 9.52 0 0 Z " fill="#2E2F2C" transform="translate(467,795)"/>
<path d="M0 0 C0.33 0 0.66 0 1 0 C1.03 3.71 1.05 7.42 1.06 11.12 C1.07 12.17 1.08 13.22 1.09 14.3 C1.13 27.64 1.13 27.64 -1.56 30.88 C-2.27 31.43 -2.27 31.43 -3 32 C-4 25.12 -4 25.12 -4 24 C-4.66 24.33 -5.32 24.66 -6 25 C-6.2 22.1 -6.38 19.21 -6.56 16.31 C-6.62 15.5 -6.67 14.68 -6.73 13.84 C-6.98 9.7 -7.11 6.04 -6 2 C-5.67 2 -5.34 2 -5 2 C-5 3.98 -5 5.96 -5 8 C-4.34 8 -3.68 8 -3 8 C-3 7.01 -3 6.02 -3 5 C-2.34 5 -1.68 5 -1 5 C-0.67 3.35 -0.34 1.7 0 0 Z M-1 5 C-1 7.31 -1 9.62 -1 12 C-0.67 12 -0.34 12 0 12 C0 9.69 0 7.38 0 5 C-0.33 5 -0.66 5 -1 5 Z " fill="#4F514D" transform="translate(558,769)"/>
<path d="M0 0 C0.99 0 1.98 0 3 0 C2.89 8.24 2.78 16.48 2.66 24.72 C2.61 28.55 2.55 32.38 2.5 36.2 C2.45 39.9 2.4 43.6 2.35 47.29 C2.33 48.7 2.31 50.11 2.29 51.51 C2.27 53.49 2.24 55.47 2.21 57.44 C2.18 59.13 2.18 59.13 2.16 60.85 C2 63.97 1.58 66.93 1 70 C0.01 69.67 -0.98 69.34 -2 69 C-1.34 69 -0.68 69 0 69 C0 46.23 0 23.46 0 0 Z " fill="#191919" transform="translate(340,622)"/>
<path d="M0 0 C0.33 0.99 0.66 1.98 1 3 C2.32 2.67 3.64 2.34 5 2 C4.47 7.03 3.89 12.02 3 17 C2.01 16.01 1.02 15.02 0 14 C0.01 14.93 0.02 15.86 0.04 16.82 C0.12 29.09 0.12 29.09 -1 35 C-1.33 35 -1.66 35 -2 35 C-2.26 30.48 -2.48 25.96 -2.69 21.44 C-2.76 20.16 -2.83 18.88 -2.91 17.57 C-3.2 10.9 -3.42 5.84 0 0 Z " fill="#151615" transform="translate(348,761)"/>
<path d="M0 0 C1.35 0 2.7 0.01 4.05 0.02 C5.11 0.02 5.11 0.02 6.19 0.02 C8.47 0.03 10.74 0.04 13.01 0.05 C14.55 0.06 16.09 0.06 17.62 0.06 C21.4 0.08 25.17 0.09 28.95 0.11 C28.29 1.1 27.63 2.09 26.95 3.11 C24.31 3.49 24.31 3.49 20.99 3.48 C19.2 3.48 19.2 3.48 17.37 3.47 C15.49 3.45 15.49 3.45 13.57 3.43 C12.33 3.43 11.08 3.43 9.8 3.44 C-0.34 3.38 -0.34 3.38 -4.05 1.11 C-3.05 0.11 -3.05 0.11 0 0 Z " fill="#363636" transform="translate(498.051025390625,581.886474609375)"/>
<path d="M0 0 C0.33 0 0.66 0 1 0 C1 13.86 1 27.72 1 42 C-1 41 -1 41 -2 38 C-2.36 29.98 -2.02 21.94 -1.56 13.94 C-1.5 12.89 -1.5 12.89 -1.44 11.81 C-1.19 7.82 -0.73 3.93 0 0 Z " fill="#C6C8BF" transform="translate(355,635)"/>
<path d="M0 0 C0.66 0 1.32 0 2 0 C2 0.66 2 1.32 2 2 C4.31 2 6.62 2 9 2 C9.33 2.99 9.66 3.98 10 5 C10.99 5.33 11.98 5.66 13 6 C10 7 10 7 8 7 C8.31 7.74 8.62 8.49 8.94 9.25 C9.81 11.51 10.48 13.65 11 16 C10.34 16 9.68 16 9 16 C9 15.34 9 14.68 9 14 C8.44 13.79 7.89 13.59 7.31 13.38 C4.01 11.41 2.18 9.14 0 6 C-0.31 2.62 -0.31 2.62 0 0 Z " fill="#71726E" transform="translate(359,829)"/>
<path d="M0 0 C0.33 0 0.66 0 1 0 C1 27.72 1 55.44 1 84 C0.67 84 0.34 84 0 84 C0 56.28 0 28.56 0 0 Z " fill="#D7D9D0" transform="translate(610,635)"/>
<path d="M0 0 C1.98 -0.04 3.96 -0.07 5.94 -0.1 C7.03 -0.12 8.11 -0.14 9.23 -0.16 C11.73 0.05 11.73 0.05 13.73 2.05 C10.34 2.82 7.19 3.18 3.71 3.2 C2.74 3.21 1.77 3.21 0.77 3.22 C-0.78 3.22 -0.78 3.22 -2.37 3.22 C-3.44 3.23 -4.52 3.23 -5.62 3.23 C-7.89 3.24 -10.15 3.24 -12.42 3.24 C-15.89 3.24 -19.36 3.26 -22.83 3.28 C-25.03 3.28 -27.23 3.28 -29.43 3.28 C-30.99 3.29 -30.99 3.29 -32.59 3.31 C-34.03 3.3 -34.03 3.3 -35.51 3.3 C-36.36 3.3 -37.21 3.3 -38.08 3.3 C-40.27 3.05 -40.27 3.05 -43.27 1.05 C-37.69 0.91 -32.1 0.77 -26.52 0.63 C-24.63 0.58 -22.73 0.53 -20.84 0.48 C-15.46 0.34 -10.08 0.21 -4.7 0.1 C-3.14 0.07 -1.57 0.04 0 0 Z " fill="#535352" transform="translate(584.2679443359375,615.9462890625)"/>
<path d="M0 0 C2.79 -0.08 5.58 -0.14 8.38 -0.19 C9.17 -0.21 9.96 -0.24 10.78 -0.26 C12.86 -0.29 14.93 -0.15 17 0 C17.66 0.99 18.32 1.98 19 3 C6.46 3 -6.08 3 -19 3 C-18.67 2.34 -18.34 1.68 -18 1 C-15.37 0.97 -12.75 0.95 -10.12 0.94 C-9.38 0.93 -8.63 0.92 -7.86 0.91 C-2.23 0.89 -2.23 0.89 0 2 C0 1.34 0 0.68 0 0 Z " fill="#353535" transform="translate(514,567)"/>
<path d="M0 0 C4.62 1.16 9.44 1.25 14.18 1.55 C10.54 3.98 8.47 3.71 4.18 3.55 C4.18 4.21 4.18 4.87 4.18 5.55 C-0.44 5.55 -5.06 5.55 -9.82 5.55 C-9.82 3.57 -9.82 1.59 -9.82 -0.45 C-6.03 -1.6 -3.71 -1.22 0 0 Z " fill="#71726E" transform="translate(320.8203125,579.453125)"/>
<path d="M0 0 C-1.98 0.33 -3.96 0.66 -6 1 C-3.03 1.5 -3.03 1.5 0 2 C0 2.33 0 2.66 0 3 C-17.86 3.18 -17.86 3.18 -26 2 C-21.98 -2.02 -17.42 -1.41 -12 -1.69 C-11.07 -1.75 -10.14 -1.81 -9.19 -1.87 C-8.3 -1.92 -7.41 -1.96 -6.5 -2.01 C-5.69 -2.06 -4.87 -2.1 -4.03 -2.15 C-2 -2 -2 -2 0 0 Z " fill="#595958" transform="translate(408,589)"/>
<path d="M0 0 C1.94 -0.05 3.87 -0.09 5.81 -0.12 C6.89 -0.15 7.97 -0.17 9.08 -0.2 C12 0 12 0 15 2 C15 2.99 15 3.98 15 5 C12.96 5.05 10.92 5.09 8.88 5.12 C7.17 5.16 7.17 5.16 5.43 5.2 C1.94 5 -0.76 4.25 -4 3 C-2.68 2.67 -1.36 2.34 0 2 C0 1.34 0 0.68 0 0 Z " fill="#141513" transform="translate(444,717)"/>
<path d="M0 0 C0.33 0 0.66 0 1 0 C1 19.14 1 38.28 1 58 C0.67 58 0.34 58 0 58 C0 38.86 0 19.72 0 0 Z " fill="#D7D9D0" transform="translate(333,628)"/>
<path d="M0 0 C0.33 0 0.66 0 1 0 C1.13 6.39 1.13 6.39 0.52 9.37 C-0.05 12.26 -0.21 15.01 -0.32 17.96 C-0.36 19.07 -0.4 20.18 -0.44 21.33 C-0.5 23.05 -0.5 23.05 -0.56 24.81 C-0.61 25.98 -0.65 27.15 -0.69 28.36 C-0.8 31.24 -0.9 34.12 -1 37 C-1.33 37 -1.66 37 -2 37 C-2.33 29.74 -2.66 22.48 -3 15 C-3.33 15 -3.66 15 -4 15 C-4 12.69 -4 10.38 -4 8 C-3.34 8 -2.68 8 -2 8 C-1.78 7.13 -1.78 7.13 -1.56 6.25 C-1.04 4.17 -0.52 2.08 0 0 Z " fill="#AAACA4" transform="translate(346,759)"/>
<path d="M0 0 C-0.99 0.5 -0.99 0.5 -2 1 C-2 1.66 -2 2.32 -2 3 C0.31 3 2.62 3 5 3 C5 3.33 5 3.66 5 4 C-2.59 4.33 -10.18 4.66 -18 5 C-18.33 4.34 -18.66 3.68 -19 3 C-14.55 2.5 -14.55 2.5 -10 2 C-11.32 1.67 -12.64 1.34 -14 1 C-14 0.67 -14 0.34 -14 0 C-8.98 -0.78 -5.02 -1.13 0 0 Z " fill="#D7D9D0" transform="translate(331,583)"/>
<path d="M0 0 C0.96 0.1 1.91 0.2 2.9 0.3 C5.23 0.55 7.55 0.8 9.88 1.06 C9.88 1.39 9.88 1.72 9.88 2.06 C5.83 2.09 1.79 2.11 -2.25 2.12 C-3.96 2.14 -3.96 2.14 -5.71 2.15 C-6.82 2.15 -7.93 2.16 -9.07 2.16 C-10.59 2.17 -10.59 2.17 -12.15 2.18 C-15.22 2.06 -18.11 1.63 -21.12 1.06 C-21.12 0.73 -21.12 0.4 -21.12 0.06 C-13.9 -0.95 -7.23 -0.82 0 0 Z " fill="#A2A49D" transform="translate(521.125,703.9375)"/>
<path d="M0 0 C1.39 0.08 1.39 0.08 2.81 0.16 C5.08 0.29 7.35 0.42 9.62 0.56 C9.62 0.89 9.62 1.22 9.62 1.56 C-20.07 3.43 -20.07 3.43 -24.38 0.56 C-21.54 0.61 -21.54 0.61 -18.71 0.66 C-16.31 0.62 -16.31 0.62 -13.75 0.03 C-9.12 -0.61 -4.66 -0.29 0 0 Z " fill="#AFB1AA" transform="translate(395.375,703.4375)"/>
<path d="M0 0 C0.33 0 0.66 0 1 0 C1.06 3.62 1.09 7.25 1.12 10.88 C1.15 12.42 1.15 12.42 1.18 14 C1.18 14.99 1.19 15.98 1.2 16.99 C1.21 17.9 1.22 18.81 1.23 19.75 C1 22 1 22 -1 24 C-1.33 19.05 -1.66 14.1 -2 9 C-1.34 9 -0.68 9 0 9 C0 6.03 0 3.06 0 0 Z " fill="#C3C4BC" transform="translate(432,795)"/>
<path d="M0 0 C3.06 0.57 5.63 0.15 8.68 -0.31 C11.47 -0.57 13.98 -0.11 16.69 0.5 C16.69 1.16 16.69 1.82 16.69 2.5 C13.62 2.53 10.56 2.55 7.5 2.56 C6.2 2.58 6.2 2.58 4.88 2.59 C0.68 2.6 -3.22 2.58 -7.31 1.5 C-7.31 1.17 -7.31 0.84 -7.31 0.5 C-4.64 -0.19 -2.72 -0.59 0 0 Z " fill="#363636" transform="translate(319.3125,569.5)"/>
<path d="M0 0 C1.79 -0.05 3.58 -0.09 5.38 -0.12 C6.37 -0.15 7.37 -0.17 8.4 -0.2 C11 0 11 0 13 2 C12.67 2.99 12.34 3.98 12 5 C11.01 4.67 10.02 4.34 9 4 C7.11 3.93 5.21 3.92 3.31 3.94 C2.32 3.95 1.32 3.96 0.3 3.96 C-0.46 3.98 -1.22 3.99 -2 4 C-1.34 2.68 -0.68 1.36 0 0 Z " fill="#D2D3CB" transform="translate(591,564)"/>
<path d="M0 0 C4.73 2.3 7.45 5.5 10 10 C10 10.66 10 11.32 10 12 C9.34 12 8.68 12 8 12 C8 11.34 8 10.68 8 10 C7.44 9.79 6.89 9.59 6.31 9.38 C3.07 7.45 1.32 4.96 -1 2 C-0.67 1.34 -0.34 0.68 0 0 Z " fill="#62645F" transform="translate(360,833)"/>
<path d="M0 0 C4.26 6.78 2.45 17.41 1 25 C0.67 25 0.34 25 0 25 C-0.2 21.02 -0.38 17.04 -0.56 13.06 C-0.62 11.93 -0.67 10.79 -0.73 9.62 C-0.78 8.54 -0.83 7.46 -0.88 6.35 C-0.93 5.35 -0.97 4.35 -1.02 3.32 C-1 1 -1 1 0 0 Z " fill="#000100" transform="translate(346,771)"/>
<path d="M0 0 C0.33 0 0.66 0 1 0 C1.06 3.44 1.09 6.87 1.12 10.31 C1.15 11.78 1.15 11.78 1.18 13.27 C1.18 14.21 1.19 15.15 1.2 16.11 C1.21 16.98 1.22 17.84 1.23 18.73 C1 21 1 21 -1 24 C-2.32 23.67 -3.64 23.34 -5 23 C-4.33 21 -3.67 19 -3 17 C-2.34 17 -1.68 17 -1 17 C-0.67 11.39 -0.34 5.78 0 0 Z M-1 19 C0 21 0 21 0 21 Z " fill="#8C8E88" transform="translate(332,707)"/>
<path d="M0 0 C0.66 0.33 1.32 0.66 2 1 C1.61 3.42 1.32 4.7 -0.49 6.41 C-1.39 7.01 -1.39 7.01 -2.31 7.62 C-3.25 8.25 -3.25 8.25 -4.21 8.89 C-6.09 10.06 -7.98 11.11 -10 12 C-8.52 8.55 -6.56 6.35 -3.88 3.75 C-3.15 3.04 -2.43 2.34 -1.68 1.61 C-1.13 1.08 -0.57 0.55 0 0 Z " fill="#9C9E98" transform="translate(374,567)"/>
<path d="M0 0 C4.95 0 9.9 0 15 0 C13 2 13 2 9.38 2.12 C8.26 2.08 7.15 2.04 6 2 C6 2.66 6 3.32 6 4 C7.98 4 9.96 4 12 4 C12 4.33 12 4.66 12 5 C10.14 5.15 10.14 5.15 8.25 5.31 C7.55 5.37 6.86 5.43 6.14 5.49 C4 5 4 5 0 0 Z " fill="#D7D9D0" transform="translate(324,594)"/>
<path d="M0 0 C1.77 -0.08 3.54 -0.14 5.31 -0.19 C6.3 -0.22 7.28 -0.26 8.3 -0.29 C11 0 11 0 14 3 C9.38 3 4.76 3 0 3 C0 2.01 0 1.02 0 0 Z " fill="#383838" transform="translate(313,594)"/>
<path d="M0 0 C0.33 0 0.66 0 1 0 C1.36 2.96 1.71 5.92 2.06 8.88 C2.17 9.72 2.27 10.56 2.38 11.43 C2.47 12.23 2.56 13.04 2.66 13.87 C2.75 14.61 2.84 15.35 2.93 16.12 C3 18 3 18 2 20 C1.01 19.67 0.02 19.34 -1 19 C-1.33 18.01 -1.66 17.02 -2 16 C-1.34 15.01 -0.68 14.02 0 13 C0.24 9.8 0.24 9.8 0.12 6.31 C0.11 5.13 0.09 3.95 0.07 2.74 C0.05 1.83 0.02 0.93 0 0 Z " fill="#93948E" transform="translate(351,775)"/>
<path d="M0 0 C5.94 0.33 11.88 0.66 18 1 C14.32 3.45 11.56 3.23 7.31 3.12 C6.26 3.11 6.26 3.11 5.19 3.1 C3.46 3.07 1.73 3.04 0 3 C0 2.01 0 1.02 0 0 Z " fill="#343434" transform="translate(317,580)"/>
<path d="M0 0 C2.49 3.74 2.41 6.68 2 11 C1.47 13.41 0.78 15.65 0 18 C-0.33 18 -0.66 18 -1 18 C-1.03 16.56 -1.05 15.13 -1.06 13.69 C-1.07 12.89 -1.09 12.09 -1.1 11.26 C-1 9 -1 9 0 6 C-0.66 5.67 -1.32 5.34 -2 5 C-1.34 3.35 -0.68 1.7 0 0 Z " fill="#969891" transform="translate(479,802)"/>
<path d="M0 0 C2.12 -0.05 4.25 -0.09 6.38 -0.12 C7.56 -0.15 8.74 -0.17 9.96 -0.2 C13 0 13 0 15 2 C11.33 2.85 7.96 3.11 4.19 3.06 C2.72 3.05 2.72 3.05 1.23 3.04 C0.13 3.02 0.13 3.02 -1 3 C-0.67 2.01 -0.34 1.02 0 0 Z " fill="#636461" transform="translate(583,616)"/>
<path d="M0 0 C0.33 0 0.66 0 1 0 C1.03 0.58 1.05 1.17 1.08 1.77 C1.19 4.43 1.31 7.09 1.44 9.75 C1.48 10.67 1.52 11.59 1.56 12.54 C1.6 13.43 1.64 14.32 1.68 15.23 C1.72 16.05 1.76 16.87 1.79 17.71 C1.99 19.9 2.4 21.88 3 24 C2.01 23.67 1.02 23.34 0 23 C0 15.41 0 7.82 0 0 Z " fill="#313231" transform="translate(345,776)"/>
<path d="M0 0 C0.33 0 0.66 0 1 0 C1 6.27 1 12.54 1 19 C0.67 19 0.34 19 0 19 C0 12.73 0 6.46 0 0 Z " fill="#D7D9D0" transform="translate(422,797)"/>
<path d="M0 0 C6.27 0 12.54 0 19 0 C19 0.33 19 0.66 19 1 C12.73 1 6.46 1 0 1 C0 0.67 0 0.34 0 0 Z " fill="#D7D9D0" transform="translate(498,592)"/>
<path d="M0 0 C0.66 0.33 1.32 0.66 2 1 C-0.97 3.97 -3.94 6.94 -7 10 C-7 7 -7 7 -5.47 5.18 C-4.82 4.56 -4.17 3.95 -3.5 3.31 C-2.85 2.69 -2.2 2.07 -1.53 1.43 C-0.77 0.72 -0.77 0.72 0 0 Z " fill="#383838" transform="translate(358,499)"/>
<path d="M0 0 C2 3.88 2 3.88 2 5 C-2.29 5 -6.58 5 -11 5 C-11 4.67 -11 4.34 -11 4 C-9.54 3.81 -8.08 3.62 -6.62 3.44 C-5.81 3.33 -5 3.23 -4.16 3.12 C-2 3 -2 3 0 4 C0 2.68 0 1.36 0 0 Z " fill="#CED0C7" transform="translate(571,559)"/>
<path d="M0 0 C0.33 0 0.66 0 1 0 C1 4.95 1 9.9 1 15 C0.67 15 0.34 15 0 15 C0 10.05 0 5.1 0 0 Z " fill="#A5A6A0" transform="translate(290,632)"/>
<path d="M0 0 C0.33 0 0.66 0 1 0 C1 4.29 1 8.58 1 13 C0.67 13 0.34 13 0 13 C0 8.71 0 4.42 0 0 Z " fill="#D7D9D0" transform="translate(562,663)"/>
<path d="M0 0 C4.29 0 8.58 0 13 0 C13 0.33 13 0.66 13 1 C8.71 1 4.42 1 0 1 C0 0.67 0 0.34 0 0 Z " fill="#D7D9D0" transform="translate(378,605)"/>
<path d="M0 0 C0.33 0 0.66 0 1 0 C1.08 4.16 0.98 7.95 0 12 C-0.33 12 -0.66 12 -1 12 C-0.67 8.04 -0.34 4.08 0 0 Z " fill="#D7D9D0" transform="translate(489,484)"/>
<path d="M0 0 C2.97 0 5.94 0 9 0 C9 0.33 9 0.66 9 1 C5.7 1.33 2.4 1.66 -1 2 C-0.67 1.34 -0.34 0.68 0 0 Z " fill="#C8CAC2" transform="translate(465,651)"/>
<path d="M0 0 C0.66 0.33 1.32 0.66 2 1 C1.01 2.32 0.02 3.64 -1 5 C-1.99 4.67 -2.98 4.34 -4 4 C-3.34 4 -2.68 4 -2 4 C-1.34 2.68 -0.68 1.36 0 0 Z " fill="#323232" transform="translate(536,698)"/>
<path d="M0 0 C-4.62 2.12 -4.62 2.12 -8 1 C-4.93 -0.86 -3.4 -1.22 0 0 Z " fill="#D7D9D0" transform="translate(537,641)"/>
<path d="M0 0 C0.33 0.99 0.66 1.98 1 3 C0.34 3.66 -0.32 4.32 -1 5 C-1.99 4.67 -2.98 4.34 -4 4 C-2.68 2.68 -1.36 1.36 0 0 Z " fill="#383838" transform="translate(379,831)"/>
<path d="M0 0 C0.33 0 0.66 0 1 0 C1 2.97 1 5.94 1 9 C0.67 9 0.34 9 0 9 C0 6.03 0 3.06 0 0 Z " fill="#D7D9D0" transform="translate(333,698)"/>
<path d="M0 0 C2.64 0 5.28 0 8 0 C8 0.33 8 0.66 8 1 C5.36 1.33 2.72 1.66 0 2 C0 1.34 0 0.68 0 0 Z " fill="#C5C7BF" transform="translate(504,647)"/>
<path d="M0 0 C0.62 1.81 0.62 1.81 1 4 C0.34 4.99 -0.32 5.98 -1 7 C-1.04 5 -1.04 3 -1 1 C-0.67 0.67 -0.34 0.34 0 0 Z " fill="#BFC1B8" transform="translate(491,476)"/>
<path d="M0 0 C2.31 0.33 4.62 0.66 7 1 C4 2 4 2 1.81 1.06 C1.21 0.71 0.62 0.36 0 0 Z " fill="#D7D9D0" transform="translate(491,839)"/>
<path d="M0 0 C0.33 0 0.66 0 1 0 C1 2.64 1 5.28 1 8 C0.67 8 0.34 8 0 8 C0 5.36 0 2.72 0 0 Z " fill="#D7D9D0" transform="translate(421,789)"/>
<path d="M0 0 C0.33 0 0.66 0 1 0 C1 2.64 1 5.28 1 8 C0.67 8 0.34 8 0 8 C0 5.36 0 2.72 0 0 Z " fill="#0E0E0E" transform="translate(342,782)"/>
<path d="M0 0 C0.62 1.88 0.62 1.88 1 4 C0.34 4.66 -0.32 5.32 -1 6 C-0.67 4.02 -0.34 2.04 0 0 Z " fill="#D7D9D0" transform="translate(562,688)"/>
<path d="M0 0 C2.64 0 5.28 0 8 0 C8 0.33 8 0.66 8 1 C5.36 1 2.72 1 0 1 C0 0.67 0 0.34 0 0 Z " fill="#D7D9D0" transform="translate(348,605)"/>
<path d="M0 0 C0.66 0 1.32 0 2 0 C1.67 1.65 1.34 3.3 1 5 C0.67 5 0.34 5 0 5 C0 3.35 0 1.7 0 0 Z " fill="#999B94" transform="translate(520,790)"/>
<path d="M0 0 C0.33 0.66 0.66 1.32 1 2 C0.06 4.12 0.06 4.12 -1 6 C-1.04 4.33 -1.04 2.67 -1 1 C-0.67 0.67 -0.34 0.34 0 0 Z " fill="#C0C2BA" transform="translate(435,694)"/>
<path d="M0 0 C0.33 0.66 0.66 1.32 1 2 C-0.65 2.33 -2.3 2.66 -4 3 C-4 2.34 -4 1.68 -4 1 C-2.68 0.67 -1.36 0.34 0 0 Z " fill="#555653" transform="translate(439,660)"/>
<path d="M0 0 C2.31 0 4.62 0 7 0 C7 0.33 7 0.66 7 1 C4.69 1 2.38 1 0 1 C0 0.67 0 0.34 0 0 Z " fill="#D7D9D0" transform="translate(427,651)"/>
<path d="M0 0 C2.31 0 4.62 0 7 0 C7 0.33 7 0.66 7 1 C4.69 1 2.38 1 0 1 C0 0.67 0 0.34 0 0 Z " fill="#D7D9D0" transform="translate(334,592)"/>
<path d="M0 0 C2.31 0 4.62 0 7 0 C7 0.33 7 0.66 7 1 C4.69 1 2.38 1 0 1 C0 0.67 0 0.34 0 0 Z " fill="#D7D9D0" transform="translate(325,592)"/>
<path d="M0 0 C0.33 0 0.66 0 1 0 C1 2.31 1 4.62 1 7 C0.67 7 0.34 7 0 7 C0 4.69 0 2.38 0 0 Z " fill="#D7D9D0" transform="translate(430,585)"/>
<path d="M0 0 C0.33 0 0.66 0 1 0 C1 2.31 1 4.62 1 7 C0.67 7 0.34 7 0 7 C0 4.69 0 2.38 0 0 Z " fill="#D7D9D0" transform="translate(430,574)"/>
<path d="M0 0 C0.66 0.33 1.32 0.66 2 1 C1.01 1.99 0.02 2.98 -1 4 C-0.67 2.68 -0.34 1.36 0 0 Z " fill="#000100" transform="translate(544,804)"/>
<path d="M0 0 C0.33 0 0.66 0 1 0 C1 1.98 1 3.96 1 6 C0.67 6 0.34 6 0 6 C0 4.02 0 2.04 0 0 Z " fill="#D7D9D0" transform="translate(420,782)"/>
<path d="M0 0 C0.33 0.66 0.66 1.32 1 2 C-0.65 2 -2.3 2 -4 2 C-2.68 1.34 -1.36 0.68 0 0 Z " fill="#121312" transform="translate(413,701)"/>
<path d="M0 0 C0.66 0.66 1.32 1.32 2 2 C1.01 2.33 0.02 2.66 -1 3 C-1.33 2.34 -1.66 1.68 -2 1 C-1.34 0.67 -0.68 0.34 0 0 Z " fill="#B3B5AD" transform="translate(526,642)"/>
<path d="M0 0 C0.66 0.66 1.32 1.32 2 2 C1.67 2.99 1.34 3.98 1 5 C0.67 3.35 0.34 1.7 0 0 Z " fill="#D7D9D0" transform="translate(492,464)"/>
<path d="M0 0 C0.66 0.33 1.32 0.66 2 1 C0.02 1.99 0.02 1.99 -2 3 C-2 2.34 -2 1.68 -2 1 C-1.34 0.67 -0.68 0.34 0 0 Z " fill="#51524E" transform="translate(431,446)"/>
<path d="M0 0 C0.33 0.66 0.66 1.32 1 2 C0.34 2.66 -0.32 3.32 -1 4 C-0.67 2.68 -0.34 1.36 0 0 Z " fill="#D7D9D0" transform="translate(549,821)"/>
<path d="M0 0 C0.33 0.99 0.66 1.98 1 3 C0.01 3.5 0.01 3.5 -1 4 C-0.67 2.68 -0.34 1.36 0 0 Z " fill="#ACADA6" transform="translate(422,819)"/>
<path d="M0 0 C0.33 0.66 0.66 1.32 1 2 C0.34 2.66 -0.32 3.32 -1 4 C-0.67 2.68 -0.34 1.36 0 0 Z " fill="#D7D9D0" transform="translate(551,817)"/>
<path d="M0 0 C0.33 0.66 0.66 1.32 1 2 C0.34 2.66 -0.32 3.32 -1 4 C-0.67 2.68 -0.34 1.36 0 0 Z " fill="#D7D9D0" transform="translate(553,811)"/>
<path d="M0 0 C0.33 0.66 0.66 1.32 1 2 C0.34 2.66 -0.32 3.32 -1 4 C-0.67 2.68 -0.34 1.36 0 0 Z " fill="#D7D9D0" transform="translate(529,768)"/>
<path d="M0 0 C0.33 0.99 0.66 1.98 1 3 C0.01 3.5 0.01 3.5 -1 4 C-0.67 2.68 -0.34 1.36 0 0 Z " fill="#D7D9D0" transform="translate(480,762)"/>
<path d="M0 0 C0.33 0.66 0.66 1.32 1 2 C0.01 2.33 -0.98 2.66 -2 3 C-2 2.34 -2 1.68 -2 1 C-1.34 0.67 -0.68 0.34 0 0 Z " fill="#383838" transform="translate(295,621)"/>
<path d="M0 0 C0.33 0.99 0.66 1.98 1 3 C0.01 2.67 -0.98 2.34 -2 2 C-1.34 2 -0.68 2 0 2 C0 1.34 0 0.68 0 0 Z " fill="#383838" transform="translate(342,521)"/>
<path d="M0 0 C0.33 0 0.66 0 1 0 C1 1.65 1 3.3 1 5 C0.67 5 0.34 5 0 5 C0 3.35 0 1.7 0 0 Z " fill="#D7D9D0" transform="translate(486,502)"/>
<path d="M0 0 C0.33 0 0.66 0 1 0 C1 1.65 1 3.3 1 5 C0.67 5 0.34 5 0 5 C0 3.35 0 1.7 0 0 Z " fill="#D7D9D0" transform="translate(487,497)"/>
<path d="M0 0 C4 1 4 1 4 1 Z " fill="#D7D9D0" transform="translate(503,842)"/>
<path d="M0 0 C1 4 1 4 1 4 Z " fill="#D7D9D0" transform="translate(420,826)"/>
<path d="M0 0 C0 3 0 3 0 3 Z " fill="#383838" transform="translate(538,821)"/>
<path d="M0 0 C0.99 1.49 0.99 1.49 2 3 C1.34 3 0.68 3 0 3 C0 2.01 0 1.02 0 0 Z " fill="#D7D9D0" transform="translate(352,767)"/>
<path d="M0 0 C0 3 0 3 0 3 Z " fill="#D7D9D0" transform="translate(355,761)"/>
<path d="M0 0 C0.66 0.33 1.32 0.66 2 1 C1.01 1 0.02 1 -1 1 C-0.67 0.67 -0.34 0.34 0 0 Z " fill="#000100" transform="translate(355,746)"/>
<path d="M0 0 C0.66 0.33 1.32 0.66 2 1 C1.01 1 0.02 1 -1 1 C-0.67 0.67 -0.34 0.34 0 0 Z " fill="#D7D9D0" transform="translate(420,716)"/>
<path d="M0 0 C4 1 4 1 4 1 Z " fill="#000100" transform="translate(450,659)"/>
<path d="M0 0 C0.99 0.33 1.98 0.66 3 1 C2.01 1 1.02 1 0 1 C0 0.67 0 0.34 0 0 Z " fill="#383838" transform="translate(444,658)"/>
<path d="M0 0 C0.66 0.33 1.32 0.66 2 1 C1.01 1 0.02 1 -1 1 C-0.67 0.67 -0.34 0.34 0 0 Z " fill="#D7D9D0" transform="translate(543,636)"/>
<path d="M0 0 C4 1 4 1 4 1 Z " fill="#D7D9D0" transform="translate(342,605)"/>
<path d="M0 0 C4 1 4 1 4 1 Z " fill="#D7D9D0" transform="translate(379,583)"/>
<path d="M0 0 C0.99 0.33 1.98 0.66 3 1 C2.01 1 1.02 1 0 1 C0 0.67 0 0.34 0 0 Z " fill="#878884" transform="translate(589,575)"/>
<path d="M0 0 C0.33 0.99 0.66 1.98 1 3 C0.34 2.67 -0.32 2.34 -1 2 C-0.67 1.34 -0.34 0.68 0 0 Z " fill="#383838" transform="translate(340,525)"/>
<path d="M0 0 C4 1 4 1 4 1 Z " fill="#383838" transform="translate(416,454)"/>
<path d="" fill="#6D6D6A" transform="translate(0,0)"/>
<path d="" fill="#D7D9D0" transform="translate(0,0)"/>
<path d="" fill="#D7D9D0" transform="translate(0,0)"/>
<path d="" fill="#D7D9D0" transform="translate(0,0)"/>
<path d="M0 0 C0.66 0.66 1.32 1.32 2 2 C1.34 2 0.68 2 0 2 C0 1.34 0 0.68 0 0 Z " fill="#121312" transform="translate(491,753)"/>
<path d="M0 0 C3 1 3 1 3 1 Z " fill="#121312" transform="translate(362,745)"/>
<path d="M0 0 C0.33 0.66 0.66 1.32 1 2 C0.34 1.67 -0.32 1.34 -1 1 C-0.67 0.67 -0.34 0.34 0 0 Z " fill="#383838" transform="translate(417,697)"/>
<path d="" fill="#A2A39D" transform="translate(0,0)"/>
<path d="M0 0 C0.33 0.66 0.66 1.32 1 2 C0.34 1.67 -0.32 1.34 -1 1 C-0.67 0.67 -0.34 0.34 0 0 Z " fill="#252525" transform="translate(544,690)"/>
<path d="M0 0 C3 1 3 1 3 1 Z " fill="#D7D9D0" transform="translate(423,652)"/>
<path d="M0 0 C3 1 3 1 3 1 Z " fill="#D7D9D0" transform="translate(483,651)"/>
<path d="M0 0 C3 1 3 1 3 1 Z " fill="#D7D9D0" transform="translate(409,650)"/>
<path d="M0 0 C3 1 3 1 3 1 Z " fill="#D7D9D0" transform="translate(515,646)"/>
<path d="M0 0 C3 1 3 1 3 1 Z " fill="#D7D9D0" transform="translate(536,605)"/>
<path d="M0 0 C3 1 3 1 3 1 Z " fill="#D7D9D0" transform="translate(392,605)"/>
<path d="M0 0 C0.99 0.5 0.99 0.5 2 1 C1.01 1.5 1.01 1.5 0 2 C0 1.34 0 0.68 0 0 Z " fill="#383838" transform="translate(540,597)"/>
<path d="M0 0 C3 1 3 1 3 1 Z " fill="#000100" transform="translate(312,573)"/>
<path d="" fill="#D7D9D0" transform="translate(0,0)"/>
<path d="" fill="#D7D9D0" transform="translate(0,0)"/>
<path d="" fill="#D7D9D0" transform="translate(0,0)"/>
<path d="M0 0 C0.33 0.66 0.66 1.32 1 2 C0.34 1.67 -0.32 1.34 -1 1 C-0.67 0.67 -0.34 0.34 0 0 Z " fill="#383838" transform="translate(495,489)"/>
<path d="M0 0 C0.99 0.5 0.99 0.5 2 1 C1.01 1.5 1.01 1.5 0 2 C0 1.34 0 0.68 0 0 Z " fill="#121312" transform="translate(394,474)"/>
<path d="M0 0 C0.99 0.5 0.99 0.5 2 1 C1.01 1.5 1.01 1.5 0 2 C0 1.34 0 0.68 0 0 Z " fill="#121312" transform="translate(407,463)"/>
<path d="" fill="#383838" transform="translate(0,0)"/>
<path d="M0 0 C3 1 3 1 3 1 Z " fill="#5A5B58" transform="translate(437,445)"/>
<path d="M0 0 C2 1 2 1 2 1 Z " fill="#D7D9D0" transform="translate(528,846)"/>
<path d="M0 0 C2 1 2 1 2 1 Z " fill="#D7D9D0" transform="translate(378,846)"/>
<path d="M0 0 C2 1 2 1 2 1 Z " fill="#D7D9D0" transform="translate(412,838)"/>
<path d="" fill="#D7D9D0" transform="translate(0,0)"/>
<path d="" fill="#383838" transform="translate(0,0)"/>
<path d="" fill="#D7D9D0" transform="translate(0,0)"/>
<path d="" fill="#D7D9D0" transform="translate(0,0)"/>
<path d="" fill="#383838" transform="translate(0,0)"/>
<path d="" fill="#D7D9D0" transform="translate(0,0)"/>
<path d="" fill="#D7D9D0" transform="translate(0,0)"/>
<path d="" fill="#D7D9D0" transform="translate(0,0)"/>
<path d="" fill="#878884" transform="translate(0,0)"/>
<path d="" fill="#D7D9D0" transform="translate(0,0)"/>
<path d="" fill="#D7D9D0" transform="translate(0,0)"/>
<path d="" fill="#D7D9D0" transform="translate(0,0)"/>
<path d="" fill="#D7D9D0" transform="translate(0,0)"/>
<path d="M0 0 C2 1 2 1 2 1 Z " fill="#D7D9D0" transform="translate(539,758)"/>
<path d="" fill="#D7D9D0" transform="translate(0,0)"/>
<path d="" fill="#D7D9D0" transform="translate(0,0)"/>
<path d="M0 0 C2 1 2 1 2 1 Z " fill="#D7D9D0" transform="translate(494,749)"/>
<path d="M0 0 C2 1 2 1 2 1 Z " fill="#000100" transform="translate(351,749)"/>
<path d="" fill="#D7D9D0" transform="translate(0,0)"/>
<path d="M0 0 C2 1 2 1 2 1 Z " fill="#D7D9D0" transform="translate(297,728)"/>
<path d="" fill="#383838" transform="translate(0,0)"/>
<path d="M0 0 C2 1 2 1 2 1 Z " fill="#D7D9D0" transform="translate(482,717)"/>
<path d="M0 0 C2 1 2 1 2 1 Z " fill="#D7D9D0" transform="translate(543,715)"/>
<path d="M0 0 C2 1 2 1 2 1 Z " fill="#D7D9D0" transform="translate(423,715)"/>
<path d="" fill="#383838" transform="translate(0,0)"/>
<path d="" fill="#D7D9D0" transform="translate(0,0)"/>
<path d="" fill="#1C1C1C" transform="translate(0,0)"/>
<path d="M0 0 C2 1 2 1 2 1 Z " fill="#D7D9D0" transform="translate(474,652)"/>
<path d="M0 0 C2 1 2 1 2 1 Z " fill="#D7D9D0" transform="translate(439,652)"/>
<path d="M0 0 C2 1 2 1 2 1 Z " fill="#D7D9D0" transform="translate(437,651)"/>
<path d="M0 0 C2 1 2 1 2 1 Z " fill="#000100" transform="translate(377,644)"/>
<path d="M0 0 C2 1 2 1 2 1 Z " fill="#D7D9D0" transform="translate(366,640)"/>
<path d="M0 0 C2 1 2 1 2 1 Z " fill="#D7D9D0" transform="translate(537,639)"/>
<path d="M0 0 C2 1 2 1 2 1 Z " fill="#D7D9D0" transform="translate(320,605)"/>
<path d="M0 0 C2 1 2 1 2 1 Z " fill="#878884" transform="translate(543,596)"/>
<path d="" fill="#D7D9D0" transform="translate(0,0)"/>
<path d="" fill="#383838" transform="translate(0,0)"/>
<path d="" fill="#000100" transform="translate(0,0)"/>
<path d="" fill="#383838" transform="translate(0,0)"/>
<path d="M0 0 C2 1 2 1 2 1 Z " fill="#D7D9D0" transform="translate(400,583)"/>
<path d="M0 0 C2 1 2 1 2 1 Z " fill="#D7D9D0" transform="translate(321,577)"/>
<path d="" fill="#D7D9D0" transform="translate(0,0)"/>
<path d="" fill="#D7D9D0" transform="translate(0,0)"/>
<path d="" fill="#D7D9D0" transform="translate(0,0)"/>
<path d="" fill="#000100" transform="translate(0,0)"/>
<path d="" fill="#D7D9D0" transform="translate(0,0)"/>
<path d="" fill="#D7D9D0" transform="translate(0,0)"/>
<path d="" fill="#D7D9D0" transform="translate(0,0)"/>
<path d="M0 0 C2 1 2 1 2 1 Z " fill="#000100" transform="translate(373,486)"/>
<path d="" fill="#383838" transform="translate(0,0)"/>
<path d="" fill="#D7D9D0" transform="translate(0,0)"/>
<path d="" fill="#D7D9D0" transform="translate(0,0)"/>
<path d="" fill="#383838" transform="translate(0,0)"/>
<path d="" fill="#D7D9D0" transform="translate(0,0)"/>
<path d="" fill="#D7D9D0" transform="translate(0,0)"/>
<path d="" fill="#D7D9D0" transform="translate(0,0)"/>
<path d="" fill="#D7D9D0" transform="translate(0,0)"/>
<path d="" fill="#D7D9D0" transform="translate(0,0)"/>
<path d="" fill="#D7D9D0" transform="translate(0,0)"/>
<path d="" fill="#D7D9D0" transform="translate(0,0)"/>
<path d="" fill="#D7D9D0" transform="translate(0,0)"/>
<path d="" fill="#383838" transform="translate(0,0)"/>
<path d="" fill="#383838" transform="translate(0,0)"/>
<path d="" fill="#D7D9D0" transform="translate(0,0)"/>
<path d="" fill="#000100" transform="translate(0,0)"/>
<path d="" fill="#383838" transform="translate(0,0)"/>
<path d="" fill="#000100" transform="translate(0,0)"/>
<path d="" fill="#383838" transform="translate(0,0)"/>
<path d="" fill="#D7D9D0" transform="translate(0,0)"/>
<path d="" fill="#383838" transform="translate(0,0)"/>
<path d="" fill="#D7D9D0" transform="translate(0,0)"/>
<path d="" fill="#000100" transform="translate(0,0)"/>
<path d="" fill="#000100" transform="translate(0,0)"/>
<path d="" fill="#D7D9D0" transform="translate(0,0)"/>
<path d="" fill="#D7D9D0" transform="translate(0,0)"/>
<path d="" fill="#D7D9D0" transform="translate(0,0)"/>
<path d="" fill="#D7D9D0" transform="translate(0,0)"/>
<path d="" fill="#D7D9D0" transform="translate(0,0)"/>
<path d="" fill="#D7D9D0" transform="translate(0,0)"/>
<path d="" fill="#D7D9D0" transform="translate(0,0)"/>
<path d="" fill="#D7D9D0" transform="translate(0,0)"/>
<path d="" fill="#D7D9D0" transform="translate(0,0)"/>
<path d="" fill="#D7D9D0" transform="translate(0,0)"/>
<path d="" fill="#D7D9D0" transform="translate(0,0)"/>
<path d="" fill="#D7D9D0" transform="translate(0,0)"/>
<path d="" fill="#D7D9D0" transform="translate(0,0)"/>
<path d="" fill="#D7D9D0" transform="translate(0,0)"/>
<path d="" fill="#000100" transform="translate(0,0)"/>
<path d="" fill="#D7D9D0" transform="translate(0,0)"/>
<path d="" fill="#000100" transform="translate(0,0)"/>
<path d="" fill="#000100" transform="translate(0,0)"/>
<path d="" fill="#D7D9D0" transform="translate(0,0)"/>
<path d="" fill="#000100" transform="translate(0,0)"/>
<path d="" fill="#D7D9D0" transform="translate(0,0)"/>
<path d="" fill="#000100" transform="translate(0,0)"/>
<path d="" fill="#D7D9D0" transform="translate(0,0)"/>
<path d="" fill="#D7D9D0" transform="translate(0,0)"/>
<path d="" fill="#D7D9D0" transform="translate(0,0)"/>
<path d="" fill="#D7D9D0" transform="translate(0,0)"/>
<path d="" fill="#000100" transform="translate(0,0)"/>
<path d="" fill="#D7D9D0" transform="translate(0,0)"/>
<path d="" fill="#D7D9D0" transform="translate(0,0)"/>
<path d="" fill="#D7D9D0" transform="translate(0,0)"/>
<path d="" fill="#000100" transform="translate(0,0)"/>
<path d="" fill="#D7D9D0" transform="translate(0,0)"/>
<path d="" fill="#000100" transform="translate(0,0)"/>
<path d="" fill="#000100" transform="translate(0,0)"/>
<path d="" fill="#D7D9D0" transform="translate(0,0)"/>
<path d="" fill="#D7D9D0" transform="translate(0,0)"/>
<path d="" fill="#D7D9D0" transform="translate(0,0)"/>
<path d="" fill="#D7D9D0" transform="translate(0,0)"/>
<path d="" fill="#D7D9D0" transform="translate(0,0)"/>
<path d="" fill="#D7D9D0" transform="translate(0,0)"/>
<path d="" fill="#383838" transform="translate(0,0)"/>
<path d="" fill="#D7D9D0" transform="translate(0,0)"/>
<path d="" fill="#D7D9D0" transform="translate(0,0)"/>
<path d="" fill="#D7D9D0" transform="translate(0,0)"/>
<path d="" fill="#D7D9D0" transform="translate(0,0)"/>
<path d="" fill="#D7D9D0" transform="translate(0,0)"/>
<path d="" fill="#D7D9D0" transform="translate(0,0)"/>
<path d="" fill="#D7D9D0" transform="translate(0,0)"/>
<path d="" fill="#D7D9D0" transform="translate(0,0)"/>
<path d="" fill="#D7D9D0" transform="translate(0,0)"/>
<path d="" fill="#000100" transform="translate(0,0)"/>
<path d="" fill="#D7D9D0" transform="translate(0,0)"/>
<path d="" fill="#D7D9D0" transform="translate(0,0)"/>
<path d="" fill="#D7D9D0" transform="translate(0,0)"/>
<path d="" fill="#D7D9D0" transform="translate(0,0)"/>
<path d="" fill="#383838" transform="translate(0,0)"/>
<path d="" fill="#383838" transform="translate(0,0)"/>
<path d="" fill="#D7D9D0" transform="translate(0,0)"/>
<path d="" fill="#D7D9D0" transform="translate(0,0)"/>
<path d="" fill="#D7D9D0" transform="translate(0,0)"/>
<path d="" fill="#D7D9D0" transform="translate(0,0)"/>
<path d="" fill="#D7D9D0" transform="translate(0,0)"/>
<path d="" fill="#000100" transform="translate(0,0)"/>
<path d="" fill="#000100" transform="translate(0,0)"/>
<path d="" fill="#D7D9D0" transform="translate(0,0)"/>
<path d="" fill="#000100" transform="translate(0,0)"/>
<path d="" fill="#383838" transform="translate(0,0)"/>
<path d="" fill="#D7D9D0" transform="translate(0,0)"/>
<path d="" fill="#383838" transform="translate(0,0)"/>
<path d="" fill="#383838" transform="translate(0,0)"/>
<path d="" fill="#D7D9D0" transform="translate(0,0)"/>
<path d="" fill="#D7D9D0" transform="translate(0,0)"/>
<path d="" fill="#D7D9D0" transform="translate(0,0)"/>
<path d="" fill="#D7D9D0" transform="translate(0,0)"/>
<path d="" fill="#D7D9D0" transform="translate(0,0)"/>
<path d="" fill="#D7D9D0" transform="translate(0,0)"/>
<path d="" fill="#D7D9D0" transform="translate(0,0)"/>
<path d="" fill="#D7D9D0" transform="translate(0,0)"/>
<path d="" fill="#383838" transform="translate(0,0)"/>
<path d="" fill="#383838" transform="translate(0,0)"/>
<path d="" fill="#383838" transform="translate(0,0)"/>
<path d="" fill="#000100" transform="translate(0,0)"/>
<path d="" fill="#D7D9D0" transform="translate(0,0)"/>
<path d="" fill="#D7D9D0" transform="translate(0,0)"/>
<path d="" fill="#D7D9D0" transform="translate(0,0)"/>
<path d="" fill="#D7D9D0" transform="translate(0,0)"/>
<path d="" fill="#D7D9D0" transform="translate(0,0)"/>
<path d="" fill="#D7D9D0" transform="translate(0,0)"/>
<path d="" fill="#D7D9D0" transform="translate(0,0)"/>
<path d="" fill="#D7D9D0" transform="translate(0,0)"/>
<path d="" fill="#383838" transform="translate(0,0)"/>
<path d="" fill="#383838" transform="translate(0,0)"/>
<path d="" fill="#000100" transform="translate(0,0)"/>
<path d="" fill="#383838" transform="translate(0,0)"/>
<path d="" fill="#D7D9D0" transform="translate(0,0)"/>
<path d="" fill="#383838" transform="translate(0,0)"/>
<path d="" fill="#D7D9D0" transform="translate(0,0)"/>
<path d="" fill="#D7D9D0" transform="translate(0,0)"/>
<path d="" fill="#D7D9D0" transform="translate(0,0)"/>
<path d="" fill="#383838" transform="translate(0,0)"/>
<path d="" fill="#D7D9D0" transform="translate(0,0)"/>
<path d="" fill="#000100" transform="translate(0,0)"/>
<path d="" fill="#000100" transform="translate(0,0)"/>
<path d="" fill="#D7D9D0" transform="translate(0,0)"/>
<path d="" fill="#D7D9D0" transform="translate(0,0)"/>
<path d="" fill="#383838" transform="translate(0,0)"/>
<path d="" fill="#D7D9D0" transform="translate(0,0)"/>
<path d="" fill="#000100" transform="translate(0,0)"/>
<path d="" fill="#000100" transform="translate(0,0)"/>
<path d="" fill="#383838" transform="translate(0,0)"/>
<path d="" fill="#383838" transform="translate(0,0)"/>
<path d="" fill="#D7D9D0" transform="translate(0,0)"/>
<path d="" fill="#D7D9D0" transform="translate(0,0)"/>
<path d="" fill="#000100" transform="translate(0,0)"/>
<path d="" fill="#383838" transform="translate(0,0)"/>
<path d="" fill="#D7D9D0" transform="translate(0,0)"/>
<path d="" fill="#000100" transform="translate(0,0)"/>
<path d="" fill="#000100" transform="translate(0,0)"/>
<path d="" fill="#000100" transform="translate(0,0)"/>
<path d="" fill="#383838" transform="translate(0,0)"/>
<path d="" fill="#000100" transform="translate(0,0)"/>
<path d="" fill="#000100" transform="translate(0,0)"/>
<path d="" fill="#D7D9D0" transform="translate(0,0)"/>
<path d="" fill="#D7D9D0" transform="translate(0,0)"/>
<path d="" fill="#D7D9D0" transform="translate(0,0)"/>
<path d="" fill="#D7D9D0" transform="translate(0,0)"/>
<path d="" fill="#000100" transform="translate(0,0)"/>
<path d="" fill="#383838" transform="translate(0,0)"/>
<path d="" fill="#000100" transform="translate(0,0)"/>
<path d="" fill="#383838" transform="translate(0,0)"/>
<path d="" fill="#000100" transform="translate(0,0)"/>
<path d="" fill="#383838" transform="translate(0,0)"/>
</svg>
